<?xml version="1.0" encoding="utf-8"?>
<!-- Generator: Adobe Illustrator 12.0.0, SVG Export Plug-In . SVG Version: 6.00 Build 51448)  -->
<!DOCTYPE svg PUBLIC "-//W3C//DTD SVG 1.1//EN" "http://www.w3.org/Graphics/SVG/1.1/DTD/svg11.dtd" [
	<!ENTITY ns_svg "http://www.w3.org/2000/svg">
	<!ENTITY ns_xlink "http://www.w3.org/1999/xlink">
]>
<svg  version="1.1" id="Layer_1" xmlns="&ns_svg;" xmlns:xlink="&ns_xlink;" width="46" height="14" viewBox="0 0 46 14"
	 overflow="visible" enable-background="new 0 0 46 14" xml:space="preserve">
<rect fill="none" width="46" height="14"/>
<g>
	<path d="M17.281,7.096c0.078,1.753,1.119,2.716,1.168,2.751l0.2,0.182h12.095c0.173,0.033,0.787,0.619,1.193,0.99
		c1,0.914,2.135,1.948,3.301,1.948c2.352,0,4.955-0.733,5.507-4.403c0,0-3.865,0-4.681,0c-0.172-0.519-0.437-1.191-0.528-1.468
		c0.093-0.277,0.356-1.044,0.528-1.561c0.814,0,4.681,0,4.681,0c-0.552-3.67-3.155-4.313-5.507-4.313
		c-1.166,0-2.301,1.035-3.301,1.947c-0.406,0.373-1.021,0.933-1.24,0.994L18.649,4.159l-0.2,0.161
		C18.4,4.357,17.359,5.342,17.281,7.096 M30.744,5.537c0.683,0,1.345-0.513,2.184-1.28C33.652,3.597,34.643,2.6,35.24,2.6
		c1.669,0,2.55,0.179,3.441,1.56c-1.26,0-3.603,0-3.603,0l-0.938,2.938l0.938,2.843c0,0,2.343,0,3.603,0
		c-0.893,1.382-1.772,1.65-3.441,1.65c-0.598,0-1.588-0.994-2.313-1.656c-0.839-0.766-1.501-1.371-2.184-1.371c0,0-11.007,0-11.61,0
		c-0.184-0.229-0.476-0.705-0.503-1.466c0.025-0.764,0.319-1.333,0.503-1.561C19.737,5.537,30.744,5.537,30.744,5.537z"/>
	<path d="M17.464,3.509l0.219-0.174h1.77V0.63h-3.146v2.22H8.401V0.63H5.255v12.739h1.072v-0.945h1.34v0.945h0.734v-2.248h7.904
		v2.248h0.727v-0.945h1.34v0.945h1.08v-2.54H18.38c0,0-0.68-0.124-1.051-0.509c-0.506-0.521-0.701-0.719-1.023-1.307v0.797H8.401
		V4.161h7.904V5.29C16.702,3.994,17.423,3.54,17.464,3.509z M17.04,1.996h1.34v0.655h-1.34V1.996z M7.667,11.014h-1.34V9.953h1.34
		V11.014z M7.667,8.361h-1.34V7.301h1.34V8.361z M7.667,5.709h-1.34V4.648h1.34V5.709z M7.667,3.057h-1.34V1.996h1.34V3.057z"/>
</g>
</svg>
