<?xml version="1.0" encoding="utf-8"?>
<!-- Generator: Adobe Illustrator 12.0.0, SVG Export Plug-In . SVG Version: 6.00 Build 51448)  -->
<!DOCTYPE svg PUBLIC "-//W3C//DTD SVG 1.1//EN" "http://www.w3.org/Graphics/SVG/1.1/DTD/svg11.dtd" [
	<!ENTITY ns_svg "http://www.w3.org/2000/svg">
	<!ENTITY ns_xlink "http://www.w3.org/1999/xlink">
]>
<svg  version="1.1" id="Layer_1" xmlns="&ns_svg;" xmlns:xlink="&ns_xlink;" width="46" height="14" viewBox="0 0 46 14"
	 overflow="visible" enable-background="new 0 0 46 14" xml:space="preserve">
<rect fill="none" width="46" height="14"/>
<g>
	<path d="M18.253,3.496l0.214-0.199l1.999,0.001V2.31h-5.178l-0.669-1.387c-0.094-0.206-0.14-0.313-0.313-0.313H11.35
		c-0.173,0-0.222,0.117-0.313,0.313L10.334,2.31h-5.19v11.079h15.322v-2.504h-1.999l-0.11,0.537H7.295v-7.3h10.511
		C18.036,3.734,18.232,3.515,18.253,3.496z M10.245,7.548c0,1.413,1.146,2.56,2.56,2.56s2.56-1.146,2.56-2.56s-1.146-2.56-2.56-2.56
		S10.245,6.134,10.245,7.548z"/>
	<path d="M17.393,7.086c0.078,1.754,1.119,2.716,1.167,2.752l0.2,0.182h12.096c0.172,0.033,0.787,0.619,1.193,0.989
		c1,0.915,2.135,1.949,3.301,1.949c2.352,0,4.955-0.733,5.506-4.403c0,0-3.864,0-4.68,0c-0.172-0.519-0.436-1.192-0.529-1.469
		c0.095-0.277,0.357-1.044,0.529-1.561c0.814,0,4.68,0,4.68,0c-0.551-3.67-3.154-4.313-5.506-4.313
		c-1.166,0-2.301,1.035-3.301,1.947c-0.406,0.373-1.021,0.933-1.24,0.994L18.761,4.149l-0.2,0.161
		C18.512,4.348,17.471,5.332,17.393,7.086 M30.855,5.527c0.683,0,1.345-0.512,2.184-1.279c0.725-0.66,1.715-1.657,2.313-1.657
		c1.668,0,2.551,0.179,3.44,1.56c-1.259,0-3.603,0-3.603,0l-0.938,2.937l0.938,2.844c0,0,2.344,0,3.603,0
		c-0.892,1.381-1.772,1.65-3.44,1.65c-0.598,0-1.588-0.994-2.313-1.656C32.2,9.16,31.538,8.555,30.855,8.555c0,0-11.007,0-11.61,0
		c-0.184-0.229-0.476-0.705-0.503-1.467c0.025-0.763,0.319-1.333,0.503-1.561C19.849,5.527,30.855,5.527,30.855,5.527z"/>
</g>
</svg>
