<?xml version="1.0" encoding="utf-8"?>
<!-- Generator: Adobe Illustrator 12.0.0, SVG Export Plug-In . SVG Version: 6.00 Build 51448)  -->
<!DOCTYPE svg PUBLIC "-//W3C//DTD SVG 1.1//EN" "http://www.w3.org/Graphics/SVG/1.1/DTD/svg11.dtd" [
	<!ENTITY ns_svg "http://www.w3.org/2000/svg">
	<!ENTITY ns_xlink "http://www.w3.org/1999/xlink">
]>
<svg  version="1.1" id="Layer_1" xmlns="&ns_svg;" xmlns:xlink="&ns_xlink;" width="84" height="58" viewBox="0 0 84 58"
	 overflow="visible" enable-background="new 0 0 84 58" xml:space="preserve">
<rect fill="none" width="84" height="58"/>
<rect fill="none" width="84" height="58"/>
<g>
	
		<linearGradient id="XMLID_17_" gradientUnits="userSpaceOnUse" x1="42.5166" y1="-681.7251" x2="58.0642" y2="-708.6542" gradientTransform="matrix(1 0 0 -1 0 -678.3691)">
		<stop  offset="0.0562" style="stop-color:#949494"/>
		<stop  offset="0.5" style="stop-color:#F4F4F4"/>
		<stop  offset="0.9831" style="stop-color:#5E5E5E"/>
	</linearGradient>
	<path fill="url(#XMLID_17_)" d="M65.734,12.112c0.045-1.384-0.049-2.725-0.514-3.44c-0.674-1.031-1.822-1.575-2.85-1.816
		c-1.025-0.24-28.696-2.631-30.655-2.774c-1.961-0.142-3.688,0-4.993,0.098c-0.838,0.063-2.145,0.412-2.985,0.662c0,0,0,0-0.002,0
		c0.555-0.081,0.944,0.027,0.944,0.027l32.626,3.06c0,0,2.42,0.147,3.276,1.64c0.664,1.154,0.651,3.955,0.651,3.955l-0.729,34.387
		c0,0-0.045,2.435-1.307,3.133c0.016-0.01,0.021-0.019,0.04-0.024c0.56-0.276,4.994-2.869,5.318-3.682
		C64.895,46.523,65.688,13.498,65.734,12.112z"/>
	<path fill="#FFFFFF" d="M24.683,4.869l32.627,3.059c0,0,2.361,0.115,3.275,1.639c0.664,1.11,0.65,3.955,0.65,3.955
		s0.223,10.816,0,17.977c-0.217,7.166-0.729,16.412-0.729,16.412s-0.035,2.453-1.309,3.132c-1.682,0.896-4.146,0.212-4.146,0.212
		l-30.011-7.373c0,0-1.966-0.372-2.695-1.563c-0.661-1.082-0.775-3.157-0.775-3.157l-0.46-31.31c0,0,0.082-1.388,1.018-2.237
		C23.369,4.496,24.683,4.869,24.683,4.869z"/>
	
		<radialGradient id="XMLID_18_" cx="29.7539" cy="-687.5547" r="42.9234" gradientTransform="matrix(1 0 0 -1 0 -678.3691)" gradientUnits="userSpaceOnUse">
		<stop  offset="0" style="stop-color:#FFFFFF"/>
		<stop  offset="0.249" style="stop-color:#F8F8F8"/>
		<stop  offset="0.6016" style="stop-color:#E5E5E5"/>
		<stop  offset="1" style="stop-color:#C7C7C7"/>
	</radialGradient>
	<path fill="url(#XMLID_18_)" d="M29.974,22.998l-0.017-15.72c0,0,5.748,0.24,9.96,0.598c4.21,0.358,11.577,1.186,11.577,1.186
		l-1.188,38.656l-19.596-4.751L29.974,22.998z"/>
	
		<radialGradient id="XMLID_19_" cx="22.5752" cy="-685.6133" r="54.0011" gradientTransform="matrix(1 0 0 -1 0 -678.3691)" gradientUnits="userSpaceOnUse">
		<stop  offset="0" style="stop-color:#CCCCCC"/>
		<stop  offset="0.7697" style="stop-color:#0D0D0D"/>
	</radialGradient>
	<path fill="url(#XMLID_19_)" d="M58.091,11.157c-0.778-1.38-1.918-1.261-1.918-1.261v4.378l-4.139-0.54V9.598l-1.918-0.24v15.116
		c0,0,0,0.72-0.302,1.142c-0.306,0.42-1.021,0.359-1.021,0.359l-17.996-2.819c0,0-0.363-0.299-0.721-0.601
		c-0.36-0.301-0.542-1.021-0.542-1.021V7.619l-2.578-0.182v3.841l-3.021-0.281L23.84,7.078c0,0-0.962,0.539-1.264,0.959
		c-0.298,0.42-0.478,1.439-0.478,1.439s0.839,28.852,0.839,29.271c0,0.423,0.119,1.263,0.421,2.158
		c0.298,0.899,1.501,1.323,1.501,1.323v-3.36l3.057,0.722v3.296l2.042,0.479v-13.01c0,0,0.299-0.722,0.661-0.959
		c0.358-0.238,0.838-0.121,0.838-0.121l17.52,3.175l1.271,2.313l0.033,12.772l8.051-1.888l0.422-31.976
		C58.753,13.674,58.875,12.537,58.091,11.157z M24.242,23.284l3.193,0.413v4.259l-3.193-0.53V23.284z M27.682,35.952l-3.153-0.543
		v-4.142l3.183,0.412L27.682,35.952z M52.164,18.387l3.896,0.344l-0.021,4.592L52.148,22.7L52.164,18.387z"/>
	<polygon fill="#FFFFFF" points="24.073,14.938 27.266,15.35 27.266,19.608 24.073,19.078 	"/>
</g>
<g>
	<path fill="#FFFFFF" d="M35.376,27.507c0,0-0.233-2.056,2.116-2.056l23.932,2.128c0,0,3.158,0.164,3.24,2.785l-0.161,21.458
		c0,0,0,2.621-3.16,2.048l-24.14-5.896c0,0-1.95-0.227-1.862-2.257L35.376,27.507z"/>
	
		<linearGradient id="XMLID_20_" gradientUnits="userSpaceOnUse" x1="50.5322" y1="-702.2065" x2="60.5922" y2="-719.6307" gradientTransform="matrix(1 0 0 -1 0 -678.3691)">
		<stop  offset="0.0562" style="stop-color:#949494"/>
		<stop  offset="0.5" style="stop-color:#F4F4F4"/>
		<stop  offset="0.9831" style="stop-color:#5E5E5E"/>
	</linearGradient>
	<path fill="url(#XMLID_20_)" d="M67.777,30.787c0.031-1.008-0.036-1.985-0.375-2.506c-0.489-0.751-1.328-1.147-2.074-1.322
		c-0.749-0.176-20.907-1.917-22.333-2.021c-1.429-0.103-2.687,0-3.638,0.071c-0.611,0.046-1.562,0.3-2.175,0.482c0,0,0,0-0.001,0
		c0.404-0.059,0.688,0.02,0.688,0.02l23.77,2.23c0,0,1.764,0.105,2.389,1.195c0.482,0.841,0.478,2.88,0.478,2.88L64.17,51.32
		c0,0-0.033,1.771-0.952,2.281c0.013-0.008,0.017-0.015,0.029-0.021c0.409-0.202,3.64-2.089,3.877-2.681
		S67.742,31.797,67.777,30.787z"/>
	
		<linearGradient id="XMLID_21_" gradientUnits="userSpaceOnUse" x1="35.4561" y1="774.7568" x2="63.6133" y2="774.7568" gradientTransform="matrix(1 0 0 1 0 -735)">
		<stop  offset="0" style="stop-color:#FFFFFF"/>
		<stop  offset="1" style="stop-color:#999999"/>
	</linearGradient>
	<path fill="url(#XMLID_21_)" stroke="#CCCCCC" stroke-width="0.3623" d="M35.468,28.59c0,0-0.264-2.24,1.701-2.295L60.52,28.59
		c0,0,3.015,0.153,3.094,2.6L63.46,51.229c0,0,0,2.448-3.019,1.914l-23.041-5.509c0,0-2.01-0.229-1.933-1.987V28.59z"/>
	<path fill="none" stroke="#000000" stroke-width="0.3643" stroke-linecap="round" d="M36.876,26.295l23.479,2.307
		c0,0,3.031,0.154,3.11,2.616l-0.155,20.146c0,0,0,0.96-0.74,1.55"/>
	
		<linearGradient id="XMLID_22_" gradientUnits="userSpaceOnUse" x1="-47.9072" y1="772.3984" x2="-34.7241" y2="785.3496" gradientTransform="matrix(0.9861 -0.0964 0.1033 1.0571 8.7316 -787.7836)">
		<stop  offset="0" style="stop-color:#FFFFFF"/>
		<stop  offset="1" style="stop-color:#CCCCCC"/>
	</linearGradient>
	<path fill="url(#XMLID_22_)" d="M57,38.711c0.561,5.717-2.816,10.727-7.54,11.188s-9.004-3.801-9.563-9.517
		c-0.559-5.717,2.817-10.728,7.541-11.187C52.159,28.734,56.439,32.994,57,38.711z"/>
	
		<linearGradient id="XMLID_23_" gradientUnits="userSpaceOnUse" x1="-30.4917" y1="842.3594" x2="-13.9492" y2="842.3594" gradientTransform="matrix(0.955 -0.0933 0.0968 0.99 -12.5058 -796.194)">
		<stop  offset="0" style="stop-color:#FFFFFF"/>
		<stop  offset="1" style="stop-color:#999999"/>
	</linearGradient>
	<path fill="url(#XMLID_23_)" d="M55.713,39.045c0.516,5.262-2.605,9.873-6.966,10.298c-4.363,0.429-8.317-3.491-8.832-8.752
		c-0.513-5.264,2.606-9.872,6.969-10.301C51.246,29.864,55.201,33.785,55.713,39.045z"/>
	
		<linearGradient id="XMLID_24_" gradientUnits="userSpaceOnUse" x1="-77.1646" y1="809.8223" x2="-66.4444" y2="821.1306" gradientTransform="matrix(1.0346 -0.1011 0.0994 1.0167 40.2726 -796.5272)">
		<stop  offset="0" style="stop-color:#FFFFFF"/>
		<stop  offset="1" style="stop-color:#CCCCCC"/>
	</linearGradient>
	<path fill="url(#XMLID_24_)" d="M54.175,39.13c0.468,4.782-2.349,8.974-6.286,9.356c-3.938,0.385-7.512-3.18-7.979-7.961
		c-0.468-4.784,2.349-8.976,6.288-9.357C50.134,30.783,53.708,34.35,54.175,39.13z"/>
	
		<linearGradient id="XMLID_25_" gradientUnits="userSpaceOnUse" x1="-30.4907" y1="842.3535" x2="-16.7012" y2="842.3535" gradientTransform="matrix(0.955 -0.0933 0.0968 0.99 -12.5058 -796.194)">
		<stop  offset="0" style="stop-color:#FFFFFF"/>
		<stop  offset="0.1871" style="stop-color:#FBFBFB"/>
		<stop  offset="0.3895" style="stop-color:#EEEEEE"/>
		<stop  offset="0.599" style="stop-color:#D8D8D8"/>
		<stop  offset="0.8122" style="stop-color:#BABABA"/>
		<stop  offset="1" style="stop-color:#999999"/>
	</linearGradient>
	<path fill="url(#XMLID_25_)" d="M53.084,39.294c0.439,4.501-2.15,8.437-5.787,8.792c-3.639,0.355-6.942-3.004-7.382-7.505
		c-0.439-4.499,2.152-8.435,5.789-8.79C49.34,31.436,52.645,34.794,53.084,39.294z"/>
	
		<radialGradient id="XMLID_26_" cx="-75.0474" cy="872.5352" r="5.4998" gradientTransform="matrix(0.965 -0.1331 0.135 0.9786 0.0447 -823.5579)" gradientUnits="userSpaceOnUse">
		<stop  offset="0" style="stop-color:#CCFFFF"/>
		<stop  offset="1" style="stop-color:#0066FF"/>
	</radialGradient>
	<path fill="url(#XMLID_26_)" stroke="#000099" stroke-width="0.69" d="M49.954,39.668c0.462,3.35-1.195,6.344-3.702,6.689
		c-2.507,0.347-4.912-2.088-5.374-5.438c-0.462-3.347,1.195-6.343,3.701-6.688C47.085,33.887,49.491,36.32,49.954,39.668z"/>
	
		<radialGradient id="XMLID_27_" cx="-79.5371" cy="918.0234" r="5.5007" fx="-81.4911" fy="915.8748" gradientTransform="matrix(0.9732 -0.1343 0.1295 0.9387 4.1149 -832.4395)" gradientUnits="userSpaceOnUse">
		<stop  offset="0" style="stop-color:#CCFFFF"/>
		<stop  offset="1" style="stop-color:#0066FF"/>
	</radialGradient>
	<path fill="url(#XMLID_27_)" d="M50.169,39.359c0.444,3.215-1.247,6.101-3.774,6.449c-2.525,0.349-4.937-1.975-5.377-5.188
		c-0.444-3.212,1.246-6.1,3.773-6.447C47.318,33.828,49.727,36.148,50.169,39.359z"/>
	
		<linearGradient id="XMLID_28_" gradientUnits="userSpaceOnUse" x1="42.5928" y1="759.3574" x2="47.5488" y2="759.3574" gradientTransform="matrix(1 0 0 1 0 -735)">
		<stop  offset="0" style="stop-color:#000000"/>
		<stop  offset="1" style="stop-color:#0066FF"/>
	</linearGradient>
	<path fill="url(#XMLID_28_)" d="M42.593,24.94L42.593,24.94c0-1.192,0.968-1.678,2.161-1.678h0.836
		c1.436,0.258,1.959,1,1.959,2.192L42.593,24.94z"/>
	
		<linearGradient id="XMLID_29_" gradientUnits="userSpaceOnUse" x1="131.2656" y1="629.0371" x2="136.9424" y2="629.0371" gradientTransform="matrix(0.9257 0.1509 -0.024 1.0293 -49.5152 -635.2122)">
		<stop  offset="0" style="stop-color:#FFFFFF"/>
		<stop  offset="1" style="stop-color:#999999"/>
	</linearGradient>
	<path fill="url(#XMLID_29_)" stroke="#666666" stroke-width="0.2748" d="M56.939,30.402l-0.066,2.988c0,0,0.057,0.615,0.705,0.704
		c0,0,3.104,0.742,3.838,0.861c0.854,0.142,0.693-0.692,0.693-0.692l0.039-2.765c0,0-0.875-1.202-3.896-1.271
		C57.518,30.214,56.939,30.402,56.939,30.402z"/>
	
		<linearGradient id="XMLID_30_" gradientUnits="userSpaceOnUse" x1="131.2656" y1="628.874" x2="131.2686" y2="628.874" gradientTransform="matrix(0.9257 0.1509 -0.024 1.0293 -49.5152 -635.2122)">
		<stop  offset="0" style="stop-color:#FFFFFF"/>
		<stop  offset="1" style="stop-color:#999999"/>
	</linearGradient>
	<line fill="url(#XMLID_30_)" stroke="#666666" stroke-width="0.2748" x1="56.939" y1="30.402" x2="56.873" y2="33.391"/>
	<path fill="none" stroke="#000000" stroke-width="0.2748" stroke-linecap="round" d="M57.271,30.32
		c-0.207,0.041-0.332,0.082-0.332,0.082l-0.066,2.988c0,0,0.057,0.615,0.705,0.704c0,0,3.104,0.742,3.838,0.861"/>
	<line fill="none" stroke="#000000" stroke-width="0.2748" x1="56.939" y1="30.402" x2="56.873" y2="33.391"/>
</g>
<g>
	<path fill="#FFFFFF" d="M23.612,42.143c-0.987-1.33-2.921-3.994-3.264-4.938c-0.342-0.943-0.215-2.619-0.172-4.637
		c0.043-2.021,0-2.792-1.547-5.025c-1.546-2.235-3.994-3.005-4.938-3.307c-0.945-0.3-2.362-0.602-2.663-0.558
		c-0.301,0.042-0.516,0.43-0.516,0.43l4.466,6.571l-4.466,5.324l-4.207-5.625c0,0-0.386-0.131-0.517,0.041
		c-0.129,0.174,0.146,7.127,2.716,9.551c1.162,1.098,2.291,1.703,3.992,1.783c0.703,0.033,1.931,0.18,2.684,1.113
		c2.719,3.369,3.026,3.877,3.026,3.877l0.725,0.295l2.508,0.701l0.468-0.094l2.829,0.793l0.186,0.268l2.646,0.598l1.37-0.033
		C28.936,49.271,24.6,43.473,23.612,42.143z"/>
	
		<linearGradient id="XMLID_31_" gradientUnits="userSpaceOnUse" x1="16.2539" y1="749.5215" x2="26.2665" y2="777.0245" gradientTransform="matrix(1 0 0 1 0 -726.3154)">
		<stop  offset="0" style="stop-color:#E5E5E5"/>
		<stop  offset="0.3" style="stop-color:#4D4D4D"/>
		<stop  offset="0.39" style="stop-color:#4D4D4D"/>
		<stop  offset="0.56" style="stop-color:#CCCCCC"/>
	</linearGradient>
	<path fill="url(#XMLID_31_)" d="M25.731,41.506c-2.682-3.24-3.277-4.684-3.551-5.486c-0.274-0.803,0.219-3.836-0.035-5.738
		c-0.252-1.9-1.912-3.85-3.7-5.121c-1.787-1.271-4.821-1.638-5.144-1.671c-0.32-0.035-2.274,0.188-2.274,0.188
		c0.303-0.043,1.72,0.257,2.663,0.558c0.946,0.302,3.394,1.074,4.938,3.306c1.549,2.234,1.592,3.006,1.549,5.025
		s-0.172,3.693,0.174,4.637c0.342,0.943,2.274,3.607,3.263,4.939c0.987,1.33,5.323,7.129,5.323,7.129l1.799-1.121
		C30.736,48.15,28.412,44.752,25.731,41.506z"/>
	<path fill="#808080" d="M6.308,30.377l4.208,5.625l1.399-1.67c-0.798-1.061-3.272-4.338-3.364-4.42
		c-0.111-0.102-0.223-0.052-0.223-0.052l-2.246,0.474C6.201,30.342,6.308,30.377,6.308,30.377z"/>
	<polygon fill="#D9D9D9" points="21.42,47.725 15.28,39.922 17.735,38.482 25.369,48.609 21.906,47.65 	"/>
	<path fill="#FF9400" d="M18.575,39.637c0,0-0.622-0.779-1.389-0.121c-0.745,0.643-0.198,1.389-0.198,1.389l4.918,6.746l3.463,0.959
		L18.575,39.637z"/>
	
		<linearGradient id="XMLID_32_" gradientUnits="userSpaceOnUse" x1="9.084" y1="756.0967" x2="26.2605" y2="773.2685" gradientTransform="matrix(1 0 0 1 0 -726.3154)">
		<stop  offset="0" style="stop-color:#E5E5E5"/>
		<stop  offset="1" style="stop-color:#666666"/>
	</linearGradient>
	<path fill="url(#XMLID_32_)" d="M10.643,36.604c0,0,4.367-5.238,4.573-5.514c0.571-0.787,0.113-1.26,0.113-1.26l-3.656-4.95
		c0,0,2.707,0.73,3.865,1.417c1.16,0.686,2.663,2.492,3.18,3.91c0.516,1.416,0.282,3.654,0.254,4.518
		c-0.1,2.699,0.748,3.781,0.748,3.781l7.848,10.805l-2.662-0.6l-6.82-9.008c0,0-0.62-0.779-1.387-0.119
		c-0.746,0.641-0.199,1.389-0.199,1.389l4.924,6.754l-2.488-0.688c0,0-3.092-4.123-3.735-4.852c-0.645-0.73-1.634-0.73-3.006-0.988
		c-1.374-0.26-1.589,0.086-3.522-1.676c-1.932-1.76-2.618-7.73-2.618-7.73l3.636,4.805C9.685,36.6,10.131,37.113,10.643,36.604z"/>
</g>
</svg>
