<?xml version="1.0" encoding="utf-8"?>
<!-- Generator: Adobe Illustrator 12.0.0, SVG Export Plug-In . SVG Version: 6.00 Build 51448)  -->
<!DOCTYPE svg PUBLIC "-//W3C//DTD SVG 1.1//EN" "http://www.w3.org/Graphics/SVG/1.1/DTD/svg11.dtd" [
	<!ENTITY ns_svg "http://www.w3.org/2000/svg">
	<!ENTITY ns_xlink "http://www.w3.org/1999/xlink">
]>
<svg  version="1.1" id="Layer_1" xmlns="&ns_svg;" xmlns:xlink="&ns_xlink;" width="84" height="58" viewBox="0 0 84 58"
	 overflow="visible" enable-background="new 0 0 84 58" xml:space="preserve">
<rect fill="none" width="84" height="58"/>
<g>
	
		<linearGradient id="XMLID_6_" gradientUnits="userSpaceOnUse" x1="47.1689" y1="-682.7651" x2="62.7166" y2="-709.6943" gradientTransform="matrix(1 0 0 -1 0 -678.3691)">
		<stop  offset="0.0562" style="stop-color:#949494"/>
		<stop  offset="0.5" style="stop-color:#F4F4F4"/>
		<stop  offset="0.9831" style="stop-color:#5E5E5E"/>
	</linearGradient>
	<path fill="url(#XMLID_6_)" d="M70.387,13.153c0.045-1.384-0.049-2.725-0.514-3.44c-0.673-1.031-1.822-1.575-2.85-1.816
		c-1.025-0.24-28.695-2.631-30.654-2.774c-1.961-0.142-3.688,0-4.993,0.098c-0.838,0.063-2.145,0.412-2.985,0.662c0,0,0,0-0.002,0
		c0.555-0.081,0.944,0.027,0.944,0.027L61.96,8.97c0,0,2.42,0.147,3.276,1.64c0.664,1.154,0.65,3.955,0.65,3.955L65.16,48.952
		c0,0-0.045,2.435-1.307,3.133c0.016-0.01,0.021-0.019,0.041-0.024c0.559-0.276,4.994-2.869,5.317-3.682
		C69.547,47.564,70.34,14.539,70.387,13.153z"/>
	<path fill="#FFFFFF" d="M29.335,5.91l32.627,3.059c0,0,2.362,0.115,3.276,1.639c0.664,1.11,0.65,3.955,0.65,3.955
		S66,25.044,65.777,32.205c-0.217,7.166-0.615,16.747-0.615,16.747s-0.035,2.453-1.309,3.132c-1.683,0.896-4.146,0.212-4.146,0.212
		l-30.011-7.373c0,0-1.966-0.372-2.695-1.563c-0.661-1.082-0.775-3.157-0.775-3.157l-0.462-31.31c0,0,0.082-1.388,1.018-2.237
		C28.021,5.537,29.335,5.91,29.335,5.91z"/>
	
		<radialGradient id="XMLID_7_" cx="34.1606" cy="-688.6807" r="43.3275" gradientTransform="matrix(1 0 0 -1 0 -678.3691)" gradientUnits="userSpaceOnUse">
		<stop  offset="0" style="stop-color:#FFFFFF"/>
		<stop  offset="0.249" style="stop-color:#F8F8F8"/>
		<stop  offset="0.6016" style="stop-color:#E5E5E5"/>
		<stop  offset="1" style="stop-color:#C7C7C7"/>
	</radialGradient>
	<path fill="url(#XMLID_7_)" d="M34.38,24.101L34.363,8.38c0,0,4.889,0.595,9.101,0.953c4.21,0.358,12.396,1.289,12.396,1.289
		l-0.981,38.723l-20.514-4.878L34.38,24.101z"/>
	
		<radialGradient id="XMLID_8_" cx="27.2285" cy="48.709" r="55.2545" gradientTransform="matrix(1 0 0 -1 0 57)" gradientUnits="userSpaceOnUse">
		<stop  offset="0" style="stop-color:#CCCCCC"/>
		<stop  offset="0.7697" style="stop-color:#0D0D0D"/>
	</radialGradient>
	<path fill="url(#XMLID_8_)" d="M62.743,12.198c-0.778-1.38-1.918-1.261-1.918-1.261v4.378l-4.14-0.54v-4.136l-1.918-0.24v15.116
		c0,0,0,0.72-0.302,1.142c-0.305,0.42-1.021,0.359-1.021,0.359L35.45,24.197c0,0-0.363-0.299-0.721-0.601
		c-0.36-0.301-0.542-1.021-0.542-1.021V8.66l-2.578-0.182v3.841l-3.021-0.281l-0.096-3.919c0,0-0.962,0.539-1.264,0.959
		c-0.298,0.42-0.478,1.439-0.478,1.439s0.839,28.852,0.839,29.271c0,0.423,0.119,1.263,0.421,2.157
		c0.298,0.899,1.501,1.324,1.501,1.324v-3.36l3.057,0.722v3.296l2.042,0.479v-13.01c0,0,0.299-0.722,0.661-0.959
		c0.358-0.238,0.838-0.121,0.838-0.121l17.52,3.175c0,0,0.462,0.142,0.943,0.819c0.48,0.676,0.267,2.168,0.267,2.168l0.033,12.773
		c0,0,0.827,0.212,1.979,0.455l0.012-3.155l4.076,0.345l-0.146,3.362c2.07-0.294,2.143-3.14,2.15-3.983
		c0.039-3.31,0.463-31.561,0.463-31.561C63.404,14.715,63.527,13.578,62.743,12.198z M28.726,15.979l3.193,0.412v4.258l-3.193-0.53
		V15.979z M28.895,24.325l3.193,0.413v4.259l-3.193-0.53V24.325z M32.334,36.993l-3.153-0.543v-4.142l3.183,0.411L32.334,36.993z
		 M56.816,19.428l3.896,0.344l-0.021,4.592L56.8,23.741L56.816,19.428z M60.738,42.995l-3.891-0.623l0.016-4.313l4.076,0.344
		L60.738,42.995z M60.738,34.307l-3.891-0.623l0.016-4.313l4.076,0.344L60.738,34.307z"/>
	<g>
		<path fill="#FFFFFF" d="M31.452,45.77c-0.987-1.33-2.921-3.994-3.264-4.938c-0.342-0.942-0.215-2.619-0.172-4.638
			c0.044-2.021,0-2.793-1.547-5.025c-1.545-2.234-3.993-3.005-4.938-3.306c-0.945-0.301-2.362-0.602-2.663-0.559
			c-0.301,0.042-0.516,0.43-0.516,0.43l4.466,6.572l-4.466,5.322l-4.207-5.624c0,0-0.386-0.13-0.517,0.042
			c-0.129,0.173,0.146,7.127,2.716,9.553c1.162,1.098,2.291,1.701,3.992,1.782c0.703,0.034,1.931,0.181,2.684,1.112
			c2.719,3.369,3.026,3.879,3.026,3.879l0.724,0.294l2.509,0.7l0.467-0.092l2.829,0.791l0.185,0.27l2.646,0.598l1.371-0.035
			C36.777,52.896,32.44,47.1,31.452,45.77z"/>
		
			<linearGradient id="XMLID_9_" gradientUnits="userSpaceOnUse" x1="24.0938" y1="761.3408" x2="34.1059" y2="788.8426" gradientTransform="matrix(1 0 0 1 0 -734.5098)">
			<stop  offset="0" style="stop-color:#E5E5E5"/>
			<stop  offset="0.3" style="stop-color:#4D4D4D"/>
			<stop  offset="0.39" style="stop-color:#4D4D4D"/>
			<stop  offset="0.56" style="stop-color:#CCCCCC"/>
		</linearGradient>
		<path fill="url(#XMLID_9_)" d="M33.571,45.133c-2.681-3.24-3.277-4.686-3.55-5.486c-0.275-0.803,0.218-3.838-0.035-5.737
			c-0.253-1.902-1.913-3.853-3.701-5.123c-1.787-1.27-4.821-1.637-5.144-1.67c-0.32-0.035-2.274,0.188-2.274,0.188
			c0.303-0.043,1.72,0.257,2.663,0.557c0.946,0.303,3.394,1.074,4.938,3.307c1.549,2.232,1.592,3.006,1.549,5.025
			c-0.043,2.019-0.173,3.692,0.173,4.637c0.342,0.945,2.275,3.607,3.263,4.941c0.988,1.328,5.323,7.127,5.323,7.127l1.799-1.119
			C38.576,51.777,36.251,48.376,33.571,45.133z"/>
		<path fill="#808080" d="M14.147,34.002l4.208,5.625l1.399-1.67c-0.798-1.061-3.272-4.338-3.364-4.42
			c-0.111-0.102-0.223-0.051-0.223-0.051l-2.245,0.473C14.041,33.967,14.147,34.002,14.147,34.002z"/>
		<polygon fill="#D9D9D9" points="29.26,51.352 23.12,43.548 25.575,42.107 33.208,52.234 29.746,51.275 		"/>
		<path fill="#FF9400" d="M26.415,43.262c0,0-0.622-0.779-1.389-0.119c-0.745,0.644-0.198,1.389-0.198,1.389l4.918,6.744
			l3.463,0.961L26.415,43.262z"/>
		
			<linearGradient id="XMLID_10_" gradientUnits="userSpaceOnUse" x1="16.9229" y1="767.917" x2="34.1004" y2="785.0898" gradientTransform="matrix(1 0 0 1 0 -734.5098)">
			<stop  offset="0" style="stop-color:#E5E5E5"/>
			<stop  offset="1" style="stop-color:#666666"/>
		</linearGradient>
		<path fill="url(#XMLID_10_)" d="M18.483,40.229c0,0,4.367-5.235,4.573-5.515c0.571-0.786,0.113-1.259,0.113-1.259l-3.656-4.949
			c0,0,2.707,0.73,3.865,1.417c1.16,0.687,2.663,2.491,3.179,3.909c0.516,1.416,0.283,3.656,0.254,4.52
			c-0.099,2.699,0.749,3.78,0.749,3.78l7.847,10.806l-2.662-0.602l-6.82-9.007c0,0-0.62-0.778-1.387-0.12
			c-0.746,0.643-0.199,1.389-0.199,1.389l4.924,6.756l-2.489-0.688c0,0-3.092-4.122-3.735-4.854
			c-0.645-0.729-1.634-0.729-3.006-0.987c-1.374-0.259-1.589,0.088-3.522-1.675c-1.932-1.76-2.618-7.731-2.618-7.731l3.636,4.808
			C17.525,40.227,17.97,40.74,18.483,40.229z"/>
	</g>
</g>
</svg>
