<?xml version="1.0" encoding="utf-8"?>
<!-- Generator: Adobe Illustrator 12.0.0, SVG Export Plug-In . SVG Version: 6.00 Build 51448)  -->
<!DOCTYPE svg PUBLIC "-//W3C//DTD SVG 1.1//EN" "http://www.w3.org/Graphics/SVG/1.1/DTD/svg11.dtd" [
	<!ENTITY ns_svg "http://www.w3.org/2000/svg">
	<!ENTITY ns_xlink "http://www.w3.org/1999/xlink">
]>
<svg  version="1.1" id="Layer_1" xmlns="&ns_svg;" xmlns:xlink="&ns_xlink;" width="84" height="58" viewBox="0 0 84 58"
	 overflow="visible" enable-background="new 0 0 84 58" xml:space="preserve">
<rect fill="none" width="84" height="58"/>
<g>
	<g>
		<path fill="#FFFFFF" d="M27.942,14.583c0,0-0.293-2.59,2.666-2.59l30.149,2.681c0,0,3.979,0.207,4.082,3.509l-0.202,27.033
			c0,0,0,3.304-3.982,2.58l-30.41-7.428c0,0-2.457-0.283-2.346-2.843L27.942,14.583z"/>
		
			<linearGradient id="XMLID_24_" gradientUnits="userSpaceOnUse" x1="47.0371" y1="-688.3271" x2="59.7106" y2="-710.2782" gradientTransform="matrix(1 0 0 -1 0 -678.3691)">
			<stop  offset="0.0562" style="stop-color:#949494"/>
			<stop  offset="0.5" style="stop-color:#F4F4F4"/>
			<stop  offset="0.9831" style="stop-color:#5E5E5E"/>
		</linearGradient>
		<path fill="url(#XMLID_24_)" d="M68.762,18.715c0.039-1.27-0.045-2.501-0.473-3.157c-0.616-0.946-1.673-1.446-2.612-1.666
			c-0.944-0.221-26.339-2.415-28.136-2.546c-1.8-0.13-3.385,0-4.583,0.089c-0.77,0.058-1.968,0.378-2.74,0.607c0,0,0,0-0.001,0
			c0.509-0.074,0.867,0.025,0.867,0.025l29.945,2.81c0,0,2.222,0.132,3.009,1.505c0.608,1.06,0.601,3.629,0.601,3.629l-0.421,24.57
			c0,0-0.041,2.231-1.198,2.875c0.016-0.011,0.021-0.019,0.037-0.024c0.516-0.255,4.584-2.632,4.883-3.375
			C68.236,43.309,68.718,19.987,68.762,18.715z"/>
		
			<linearGradient id="XMLID_25_" gradientUnits="userSpaceOnUse" x1="28.0435" y1="756.3301" x2="63.5156" y2="756.3301" gradientTransform="matrix(1 0 0 1 0 -726.3154)">
			<stop  offset="0" style="stop-color:#FFFFFF"/>
			<stop  offset="1" style="stop-color:#999999"/>
		</linearGradient>
		<path fill="url(#XMLID_25_)" stroke="#CCCCCC" stroke-width="0.4564" d="M28.058,15.947c0,0-0.332-2.822,2.143-2.891l29.417,2.891
			c0,0,3.797,0.193,3.897,3.275L63.32,44.467c0,0,0,3.084-3.801,2.412l-29.026-6.941c0,0-2.532-0.287-2.436-2.502L28.058,15.947
			L28.058,15.947z"/>
		<path fill="none" stroke="#000000" stroke-width="0.4589" stroke-linecap="round" d="M29.832,13.056l29.58,2.907
			c0,0,3.818,0.193,3.919,3.295l-0.196,25.381c0,0,0,1.209-0.933,1.951"/>
		
			<linearGradient id="XMLID_26_" gradientUnits="userSpaceOnUse" x1="-52.3008" y1="752.4414" x2="-35.6931" y2="768.757" gradientTransform="matrix(0.9861 -0.0964 0.1033 1.0571 9.2277 -778.5209)">
			<stop  offset="0" style="stop-color:#FFFFFF"/>
			<stop  offset="1" style="stop-color:#CCCCCC"/>
		</linearGradient>
		<path fill="url(#XMLID_26_)" d="M55.186,28.698c0.705,7.2-3.549,13.513-9.5,14.093c-5.951,0.58-11.343-4.787-12.046-11.989
			c-0.705-7.202,3.549-13.515,9.5-14.093C49.086,16.129,54.479,21.496,55.186,28.698z"/>
		
			<linearGradient id="XMLID_27_" gradientUnits="userSpaceOnUse" x1="-35.6997" y1="823.1973" x2="-14.8594" y2="823.1973" gradientTransform="matrix(0.955 -0.0933 0.0968 0.99 -11.9316 -787.233)">
			<stop  offset="0" style="stop-color:#FFFFFF"/>
			<stop  offset="1" style="stop-color:#999999"/>
		</linearGradient>
		<path fill="url(#XMLID_27_)" d="M53.563,29.118c0.649,6.628-3.283,12.438-8.775,12.974c-5.497,0.539-10.478-4.398-11.127-11.027
			c-0.646-6.629,3.284-12.436,8.779-12.976C47.936,17.553,52.918,22.492,53.563,29.118z"/>
		
			<linearGradient id="XMLID_28_" gradientUnits="userSpaceOnUse" x1="-81.3096" y1="789.5635" x2="-67.8039" y2="803.8101" gradientTransform="matrix(1.0346 -0.1011 0.0994 1.0167 40.5851 -787.4247)">
			<stop  offset="0" style="stop-color:#FFFFFF"/>
			<stop  offset="1" style="stop-color:#CCCCCC"/>
		</linearGradient>
		<path fill="url(#XMLID_28_)" d="M51.625,29.226c0.59,6.025-2.959,11.304-7.919,11.788s-9.463-4.007-10.051-10.029
			c-0.59-6.027,2.958-11.307,7.921-11.789C46.534,18.71,51.037,23.204,51.625,29.226z"/>
		
			<linearGradient id="XMLID_29_" gradientUnits="userSpaceOnUse" x1="-35.6987" y1="823.1885" x2="-18.3262" y2="823.1885" gradientTransform="matrix(0.955 -0.0933 0.0968 0.99 -11.9316 -787.233)">
			<stop  offset="0" style="stop-color:#FFFFFF"/>
			<stop  offset="0.1871" style="stop-color:#FBFBFB"/>
			<stop  offset="0.3895" style="stop-color:#EEEEEE"/>
			<stop  offset="0.599" style="stop-color:#D8D8D8"/>
			<stop  offset="0.8122" style="stop-color:#BABABA"/>
			<stop  offset="1" style="stop-color:#999999"/>
		</linearGradient>
		<path fill="url(#XMLID_29_)" d="M50.251,29.433c0.554,5.668-2.709,10.627-7.291,11.076c-4.584,0.447-8.746-3.784-9.3-9.454
			c-0.553-5.669,2.711-10.627,7.293-11.075C45.534,19.532,49.697,23.763,50.251,29.433z"/>
		
			<radialGradient id="XMLID_30_" cx="-78.0562" cy="853.0693" r="6.9288" gradientTransform="matrix(0.965 -0.1331 0.135 0.9786 0.7507 -814.511)" gradientUnits="userSpaceOnUse">
			<stop  offset="0" style="stop-color:#CCFFFF"/>
			<stop  offset="1" style="stop-color:#0066FF"/>
		</radialGradient>
		<path fill="url(#XMLID_30_)" stroke="#000099" stroke-width="0.8693" d="M46.309,29.902c0.582,4.221-1.506,7.992-4.665,8.428
			c-3.158,0.438-6.188-2.631-6.77-6.85c-0.582-4.216,1.506-7.99,4.663-8.425C42.693,22.62,45.725,25.686,46.309,29.902z"/>
		
			<radialGradient id="XMLID_31_" cx="-82.4336" cy="897.8408" r="6.9295" fx="-84.8951" fy="895.1343" gradientTransform="matrix(0.9732 -0.1343 0.1295 0.9387 4.7682 -823.5615)" gradientUnits="userSpaceOnUse">
			<stop  offset="0" style="stop-color:#CCFFFF"/>
			<stop  offset="1" style="stop-color:#0066FF"/>
		</radialGradient>
		<path fill="url(#XMLID_31_)" d="M46.578,29.516c0.561,4.051-1.57,7.685-4.754,8.125c-3.183,0.438-6.219-2.486-6.776-6.535
			c-0.56-4.045,1.57-7.683,4.753-8.122C42.986,22.546,46.021,25.47,46.578,29.516z"/>
		
			<linearGradient id="XMLID_32_" gradientUnits="userSpaceOnUse" x1="37.0342" y1="736.9316" x2="43.2773" y2="736.9316" gradientTransform="matrix(1 0 0 1 0 -726.3154)">
			<stop  offset="0" style="stop-color:#000000"/>
			<stop  offset="1" style="stop-color:#0066FF"/>
		</linearGradient>
		<path fill="url(#XMLID_32_)" d="M37.034,11.349L37.034,11.349c0-1.501,1.219-2.114,2.723-2.114h1.053
			c1.809,0.325,2.467,1.26,2.467,2.762L37.034,11.349z"/>
		
			<linearGradient id="XMLID_33_" gradientUnits="userSpaceOnUse" x1="128.6191" y1="609.96" x2="135.7725" y2="609.96" gradientTransform="matrix(0.9257 0.1509 -0.024 1.0293 -49.3658 -626.9163)">
			<stop  offset="0" style="stop-color:#FFFFFF"/>
			<stop  offset="1" style="stop-color:#999999"/>
		</linearGradient>
		<path fill="url(#XMLID_33_)" stroke="#666666" stroke-width="0.3462" d="M55.107,18.23l-0.084,3.765c0,0,0.072,0.776,0.89,0.889
			c0,0,3.909,0.935,4.835,1.085c1.075,0.177,0.873-0.874,0.873-0.874l0.05-3.482c0,0-1.103-1.514-4.905-1.602
			C55.837,17.993,55.107,18.23,55.107,18.23z"/>
		
			<linearGradient id="XMLID_34_" gradientUnits="userSpaceOnUse" x1="128.6211" y1="609.7539" x2="128.625" y2="609.7539" gradientTransform="matrix(0.9257 0.1509 -0.024 1.0293 -49.3658 -626.9163)">
			<stop  offset="0" style="stop-color:#FFFFFF"/>
			<stop  offset="1" style="stop-color:#999999"/>
		</linearGradient>
		<line fill="url(#XMLID_34_)" stroke="#666666" stroke-width="0.3462" x1="55.107" y1="18.23" x2="55.023" y2="21.995"/>
		<path fill="none" stroke="#000000" stroke-width="0.3462" stroke-linecap="round" d="M55.525,18.127
			c-0.26,0.052-0.418,0.103-0.418,0.103l-0.084,3.765c0,0,0.072,0.776,0.89,0.889c0,0,3.909,0.935,4.835,1.085"/>
		<line fill="none" stroke="#000000" stroke-width="0.3462" x1="55.107" y1="18.23" x2="55.023" y2="21.995"/>
	</g>
	<g>
		<path fill="#FFFFFF" d="M33.078,41.596c-0.987-1.33-2.921-3.994-3.264-4.938c-0.342-0.943-0.215-2.619-0.172-4.636
			c0.044-2.021,0-2.792-1.547-5.025c-1.545-2.235-3.993-3.006-4.938-3.307c-0.945-0.3-2.362-0.602-2.663-0.558
			c-0.301,0.042-0.516,0.43-0.516,0.43l4.466,6.571l-4.466,5.324l-4.207-5.625c0,0-0.386-0.131-0.517,0.041
			C15.125,30.046,15.4,37,17.97,39.424c1.162,1.098,2.291,1.703,3.992,1.783c0.703,0.033,1.931,0.18,2.684,1.113
			c2.719,3.369,3.026,3.877,3.026,3.877l0.724,0.295l2.509,0.701l0.467-0.094l2.829,0.793l0.185,0.268l2.646,0.598l1.371-0.033
			C38.403,48.725,34.066,42.926,33.078,41.596z"/>
		
			<linearGradient id="XMLID_35_" gradientUnits="userSpaceOnUse" x1="25.7202" y1="748.9736" x2="35.7328" y2="776.4766" gradientTransform="matrix(1 0 0 1 0 -726.3154)">
			<stop  offset="0" style="stop-color:#E5E5E5"/>
			<stop  offset="0.3" style="stop-color:#4D4D4D"/>
			<stop  offset="0.39" style="stop-color:#4D4D4D"/>
			<stop  offset="0.56" style="stop-color:#CCCCCC"/>
		</linearGradient>
		<path fill="url(#XMLID_35_)" d="M35.197,40.959c-2.681-3.24-3.277-4.684-3.55-5.486c-0.275-0.803,0.218-3.837-0.035-5.738
			c-0.253-1.901-1.913-3.851-3.701-5.122c-1.787-1.271-4.821-1.638-5.144-1.671c-0.32-0.035-2.274,0.188-2.274,0.188
			c0.303-0.043,1.72,0.257,2.663,0.558c0.946,0.302,3.394,1.074,4.938,3.306c1.549,2.234,1.592,3.006,1.549,5.025
			c-0.043,2.019-0.173,3.692,0.173,4.636c0.342,0.944,2.275,3.608,3.263,4.94c0.988,1.33,5.323,7.129,5.323,7.129l1.799-1.121
			C40.202,47.604,37.878,44.204,35.197,40.959z"/>
		<path fill="#808080" d="M15.774,29.829l4.208,5.626l1.399-1.67c-0.798-1.061-3.272-4.338-3.364-4.42
			c-0.111-0.102-0.223-0.052-0.223-0.052l-2.246,0.474C15.667,29.794,15.774,29.829,15.774,29.829z"/>
		<polygon fill="#D9D9D9" points="30.887,47.178 24.746,39.375 27.201,37.936 34.835,48.063 31.372,47.104 		"/>
		<path fill="#FF9400" d="M28.041,39.09c0,0-0.622-0.779-1.389-0.121c-0.745,0.643-0.198,1.389-0.198,1.389l4.918,6.746l3.463,0.959
			L28.041,39.09z"/>
		
			<linearGradient id="XMLID_36_" gradientUnits="userSpaceOnUse" x1="18.5503" y1="755.5498" x2="35.7268" y2="772.7216" gradientTransform="matrix(1 0 0 1 0 -726.3154)">
			<stop  offset="0" style="stop-color:#E5E5E5"/>
			<stop  offset="1" style="stop-color:#666666"/>
		</linearGradient>
		<path fill="url(#XMLID_36_)" d="M20.109,36.057c0,0,4.367-5.238,4.573-5.515c0.571-0.787,0.113-1.26,0.113-1.26l-3.656-4.949
			c0,0,2.707,0.73,3.865,1.417c1.16,0.686,2.663,2.491,3.179,3.909c0.516,1.416,0.283,3.655,0.254,4.519
			c-0.099,2.699,0.749,3.781,0.749,3.781l7.847,10.805l-2.662-0.6l-6.82-9.008c0,0-0.62-0.779-1.387-0.119
			c-0.746,0.641-0.199,1.389-0.199,1.389l4.924,6.754L28.4,46.492c0,0-3.092-4.123-3.735-4.852c-0.645-0.73-1.634-0.73-3.006-0.988
			c-1.374-0.26-1.589,0.086-3.522-1.676c-1.932-1.761-2.618-7.731-2.618-7.731l3.636,4.805
			C19.151,36.053,19.597,36.566,20.109,36.057z"/>
	</g>
</g>
</svg>
