<?xml version="1.0" encoding="UTF-8" standalone="no"?>
<svg
   xmlns:dc="http://purl.org/dc/elements/1.1/"
   xmlns:cc="http://web.resource.org/cc/"
   xmlns:rdf="http://www.w3.org/1999/02/22-rdf-syntax-ns#"
   xmlns:svg="http://www.w3.org/2000/svg"
   xmlns="http://www.w3.org/2000/svg"
   xmlns:sodipodi="http://sodipodi.sourceforge.net/DTD/sodipodi-0.dtd"
   xmlns:inkscape="http://www.inkscape.org/namespaces/inkscape"
   baseProfile="tiny"
   height="16px"
   version="1.1"
   viewBox="0 0 16 16"
   width="16px"
   x="0px"
   y="0px"
   id="svg2"
   sodipodi:version="0.32"
   inkscape:version="0.45.1"
   sodipodi:docname="cxui.svg"
   inkscape:output_extension="org.inkscape.output.svg.inkscape"
   sodipodi:docbase="J:\">
  <metadata
     id="metadata33">
    <rdf:RDF>
      <cc:Work
         rdf:about="">
        <dc:format>image/svg+xml</dc:format>
        <dc:type
           rdf:resource="http://purl.org/dc/dcmitype/StillImage" />
      </cc:Work>
    </rdf:RDF>
  </metadata>
  <defs
     id="defs31" />
  <sodipodi:namedview
     inkscape:window-height="575"
     inkscape:window-width="753"
     inkscape:pageshadow="2"
     inkscape:pageopacity="0.0"
     guidetolerance="10.0"
     gridtolerance="10.0"
     objecttolerance="10.0"
     borderopacity="1.0"
     bordercolor="#666666"
     pagecolor="#ffffff"
     id="base"
     inkscape:zoom="23.5625"
     inkscape:cx="8"
     inkscape:cy="8"
     inkscape:window-x="46"
     inkscape:window-y="46"
     inkscape:current-layer="svg2" />
  <path
     d="M1,3C0.447,3,0,3.447,0,4v9c0,0.553,0.447,1,1,1h14c0.553,0,1-0.447,1-1V4  c0-0.553-0.447-1-1-1H1z"
     fill="#030303"
     fill-opacity="0.7"
     stroke-opacity="0.7"
     id="path4" />
  <linearGradient
     gradientUnits="userSpaceOnUse"
     id="SVGID_1_"
     x1="7.9995"
     x2="7.9995"
     y1="3.2114"
     y2="15.0201">
    <stop
       offset="0"
       style="stop-color:#E6E6F5"
       id="stop7" />
    <stop
       offset="1"
       style="stop-color:#333342"
       id="stop9" />
  </linearGradient>
  <rect
     fill="url(#SVGID_1_)"
     height="9"
     width="14"
     x="1"
     y="4"
     id="rect11" />
  <rect
     height="7"
     width="3"
     x="1"
     y="5"
     id="rect13" />
  <rect
     fill="none"
     height="16"
     width="16"
     id="rect15" />
  <path
     d="M9,5.5c-1.656,0-3,1.342-3,3c0,1.656,1.344,3,3,3s3-1.344,3-3C12,6.842,10.656,5.5,9,5.5z"
     fill="#FFFFFF"
     fill-opacity="0.5"
     stroke-opacity="0.5"
     id="path17" />
  <linearGradient
     gradientUnits="userSpaceOnUse"
     id="SVGID_2_"
     x1="9"
     x2="9"
     y1="10.5"
     y2="6.5005">
    <stop
       offset="0"
       style="stop-color:#404040"
       id="stop20" />
    <stop
       offset="1"
       style="stop-color:#000000"
       id="stop22" />
  </linearGradient>
  <path
     d="M9,6.5c-1.104,0-2,0.896-2,2s0.896,2,2,2s2-0.896,2-2S10.104,6.5,9,6.5z"
     fill="url(#SVGID_2_)"
     id="path24" />
  <circle
     cx="9"
     cy="8.5"
     r="1.5"
     id="circle26" />
  <rect
     fill="#FFFFFF"
     height="1"
     width="2"
     x="12"
     y="5"
     id="rect28" />
  <path
     sodipodi:type="star"
     style="opacity:0.94240836;fill:#d6c838;fill-opacity:0.88888891;fill-rule:nonzero;stroke:#ffffff;stroke-width:0.2;stroke-linejoin:miter;stroke-miterlimit:4;stroke-dasharray:none;stroke-opacity:1"
     id="path2185"
     sodipodi:sides="5"
     sodipodi:cx="9.5490713"
     sodipodi:cy="2.0795755"
     sodipodi:r1="2.2878442"
     sodipodi:r2="1.1439221"
     sodipodi:arg1="0.7066142"
     sodipodi:arg2="1.3349327"
     inkscape:flatsided="false"
     inkscape:rounded="0"
     inkscape:randomized="0"
     d="M 11.289124,3.5649867 L 9.8163862,3.1918257 L 8.6740673,4.1934816 L 8.5738634,2.6775113 L 7.268236,1.9006302 L 8.6790448,1.33687 L 9.0144416,-0.14492486 L 9.9865733,1.0226225 L 11.499487,0.88370401 L 10.689489,2.1690482 L 11.289124,3.5649867 z "
     transform="matrix(1.5393553,0,0,1.408644,-1.7933311,0.4035599)" />
  <path
     style="opacity:0.94240836;fill:#ff2e0f;fill-opacity:0.8888889;fill-rule:nonzero;stroke:#000000;stroke-width:0.2;stroke-linejoin:miter;stroke-miterlimit:4;stroke-dasharray:none;stroke-opacity:1"
     id="path3370"
     d="M 14.630774,11.24099 C 14.536244,11.293201 14.819308,11.135621 14.913602,11.082985 C 14.481821,11.352087 13.722787,11.77327 14.656116,11.243166 C 14.601222,11.283527 14.543867,11.319822 14.486831,11.357029 C 14.437422,11.390808 14.396114,11.433944 14.351156,11.472963 C 14.309178,11.515651 14.26657,11.557634 14.223886,11.599601 C 14.182552,11.64315 14.139433,11.684905 14.096701,11.727058 C 14.055728,11.779123 14.013745,11.830689 13.971712,11.882115 C 13.930618,11.932717 13.901793,11.991086 13.868625,12.046694 C 13.834262,12.097799 13.804,12.151471 13.771122,12.203569 C 13.74198,12.259923 13.712319,12.315887 13.682367,12.371835 C 13.645599,12.420172 13.611237,12.469783 13.575435,12.518766 C 13.576382,12.524441 13.542269,12.564221 13.539221,12.568399 L 12.964509,12.8166 C 12.977159,12.801279 12.983841,12.78099 13.00246,12.770636 C 13.03838,12.720619 13.065683,12.665813 13.108017,12.620824 C 13.138052,12.568359 13.175201,12.518226 13.201925,12.46288 C 13.230706,12.407601 13.254233,12.348305 13.297659,12.302125 C 13.329751,12.242915 13.362423,12.185108 13.397584,12.127804 C 13.439735,12.076333 13.485971,12.026575 13.519242,11.969082 C 13.560668,11.925564 13.600873,11.881029 13.646456,11.841713 C 13.687757,11.798172 13.727797,11.753552 13.773357,11.714319 C 13.816095,11.671426 13.855641,11.624515 13.905953,11.589889 C 13.963378,11.550947 14.020518,11.509498 14.076653,11.467879 C 15.811177,10.450909 13.771639,11.654918 14.33755,11.305861 C 14.598104,11.152026 14.854897,10.991197 15.121717,10.848282 L 14.630774,11.24099 z " />
  <path
     style="opacity:0.94240836;fill:#ff2e0f;fill-opacity:0.88888891;fill-rule:nonzero;stroke:#000000;stroke-width:0.2;stroke-linejoin:miter;stroke-miterlimit:4;stroke-dasharray:none;stroke-opacity:1"
     id="path3372"
     d="M 12.536373,11.151805 C 12.479091,11.112926 12.425863,11.066349 12.373213,11.020818 C 12.318706,10.984622 12.274062,10.936464 12.225987,10.892819 C 12.180124,10.852651 12.118378,10.841646 12.062404,10.820224 C 11.993358,10.796414 11.920203,10.799144 11.848539,10.793666 C 11.764854,10.791607 11.681139,10.792432 11.597439,10.792411 C 11.520114,10.78747 11.445488,10.807058 11.370376,10.823301 C 11.31182,10.851463 11.25456,10.880325 11.197936,10.912724 C 12.433537,10.203519 11.242957,10.886316 11.129455,10.95397 C 10.964788,11.05212 11.461299,10.761935 11.62806,10.667387 C 11.82895,10.55349 11.227849,10.897966 11.02959,11.016383 C 10.863384,11.115655 11.365295,10.823458 11.533148,10.726996 C 11.476649,10.755902 11.431493,10.800249 11.38141,10.837915 C 11.337848,10.878924 11.295825,10.921376 11.252854,10.962975 C 11.206382,11.00289 11.170524,11.053058 11.129928,11.097647 C 11.092807,11.158857 11.067126,11.226268 11.038356,11.291673 C 11.005691,11.346797 10.978703,11.40475 10.948581,11.46091 C 10.915377,11.519644 10.903042,11.585876 10.884924,11.649985 C 10.856841,11.718877 10.856743,11.79285 10.847839,11.865235 C 10.843555,11.948771 10.844701,12.032437 10.844233,12.116043 C 10.830979,12.188576 10.870591,12.24475 10.890369,12.309567 C 10.909887,12.366867 10.953154,12.407295 10.984984,12.45545 C 11.007428,12.514726 11.06428,12.537513 11.105022,12.574156 C 11.161423,12.611161 11.22794,12.626325 11.291582,12.646683 C 11.372991,12.666699 11.454079,12.686484 11.535801,12.705221 C 11.619169,12.718924 11.703733,12.71686 11.787822,12.71948 C 11.852203,12.701 11.915762,12.676981 11.977319,12.65036 C 12.056025,12.643997 12.131451,12.624951 12.208836,12.610477 C 12.286379,12.601106 12.362213,12.581633 12.437697,12.561528 C 12.515374,12.555659 12.583081,12.517888 12.654168,12.490024 C 12.779027,12.421456 12.403038,12.624564 12.277914,12.692649 C 12.326236,12.656994 12.356079,12.603509 12.392588,12.556897 C 12.398225,12.549 12.403861,12.541103 12.409497,12.533207 L 12.98081,12.277956 C 12.976298,12.288174 12.971786,12.298391 12.967274,12.308609 C 12.93166,12.359492 12.892236,12.406932 12.858798,12.459415 C 12.632643,12.59766 12.418155,12.779405 12.16321,12.874737 C 12.089941,12.899359 12.019497,12.93215 11.940801,12.938494 C 11.865045,12.955847 11.790582,12.977118 11.713002,12.985849 C 11.636244,12.999757 11.558608,13.012149 11.483594,13.033306 C 11.417596,13.057385 11.357855,13.092193 11.284124,13.084018 C 11.197723,13.080109 11.110795,13.079304 11.025856,13.060563 C 10.942758,13.039451 10.859091,13.020237 10.776541,12.997001 C 10.71014,12.973551 10.640782,12.958337 10.581895,12.917287 C 10.535529,12.87375 10.479432,12.840023 10.449209,12.779439 C 10.412728,12.725506 10.368785,12.677429 10.34474,12.614874 C 10.318807,12.543426 10.280684,12.478215 10.290239,12.398374 C 10.290213,12.313935 10.289592,12.229478 10.291787,12.145058 C 10.297734,12.068362 10.295745,11.990298 10.319518,11.916022 C 10.337205,11.849975 10.354913,11.78339 10.378901,11.71923 C 10.406602,11.660623 10.42984,11.601228 10.468884,11.548823 C 10.500626,11.483495 10.531777,11.417505 10.558334,11.34943 C 10.595847,11.29904 10.618516,11.239494 10.675418,11.205108 C 10.716885,11.161461 10.756836,11.116372 10.803027,11.077518 C 10.850615,11.034367 10.892757,10.983201 10.951582,10.953602 C 12.76177,9.8994863 9.8120897,11.74785 11.613308,10.562924 C 11.636263,10.547824 10.141534,11.417376 11.684847,10.521976 C 11.744708,10.492838 11.800431,10.455161 11.86856,10.447873 C 11.94582,10.436899 12.021218,10.417484 12.100421,10.42687 C 12.184926,10.427049 12.269484,10.426228 12.353923,10.430254 C 12.430498,10.439828 12.509003,10.439224 12.58119,10.471408 C 12.644687,10.497556 12.71265,10.512359 12.760138,10.56646 C 12.807052,10.608172 12.851257,10.653264 12.902641,10.689812 C 12.955006,10.733819 13.005046,10.782137 13.06712,10.811974 L 12.536373,11.151805 z " />
  <path
     style="opacity:0.94240836;fill:#ff2e0f;fill-opacity:0.88888891;fill-rule:nonzero;stroke:#000000;stroke-width:0.2;stroke-linejoin:miter;stroke-miterlimit:4;stroke-dasharray:none;stroke-opacity:1"
     id="path3374"
     d="M 13.693167,10.50844 C 13.72605,10.587373 13.763502,10.664162 13.801348,10.740812 C 13.83602,10.805891 13.875315,10.868176 13.9148,10.930338 C 13.948877,10.981628 13.986887,11.030648 14.024252,11.079411 C 14.051665,11.132902 14.092621,11.17577 14.126284,11.22406 C 14.160688,11.283316 14.208336,11.331887 14.253013,11.38308 C 14.286779,11.440917 14.333007,11.488714 14.374828,11.540352 C 14.420516,11.588389 14.465529,11.636852 14.511604,11.684467 C 14.558096,11.725133 14.590469,11.779082 14.627595,11.827936 C 14.681255,11.858472 14.715201,11.908795 14.757878,11.950847 C 14.805211,11.986976 14.847727,12.0286 14.891885,12.068326 C 14.933797,12.131457 14.990385,12.181018 15.042435,12.234662 C 15.07404,12.261042 15.098477,12.294022 15.126607,12.323818 L 14.593515,12.647234 C 14.567296,12.619304 14.545418,12.587291 14.514932,12.563522 C 14.460338,12.50949 14.405633,12.456387 14.358189,12.395763 C 14.312596,12.355498 14.266755,12.315483 14.221852,12.274425 C 14.178362,12.23293 14.139643,12.186338 14.090695,12.149997 C 14.053827,12.101853 14.022388,12.04905 13.976492,12.008615 C 13.930428,11.959921 13.884377,11.911282 13.839521,11.861462 C 13.797695,11.810362 13.75108,11.763396 13.717836,11.705554 C 13.673949,11.654197 13.627084,11.605194 13.590484,11.548033 C 13.55491,11.496657 13.513331,11.449678 13.483195,11.394039 C 13.446296,11.345458 13.406444,11.298257 13.37498,11.245668 C 13.335226,11.179863 13.294886,11.11435 13.261162,11.045118 C 13.22412,10.972468 13.190017,10.897789 13.149421,10.827059 L 13.693167,10.50844 z " />
</svg>
