<?xml version="1.0" encoding="UTF-8" standalone="no"?>
<!DOCTYPE svg PUBLIC "-//W3C//DTD SVG 1.1 Tiny//EN" "http://www.w3.org/Graphics/SVG/1.1/DTD/svg11-tiny.dtd">
<svg xmlns="http://www.w3.org/2000/svg" xmlns:xlink="http://www.w3.org/1999/xlink" baseProfile="tiny" height="32" version="1.1" viewBox="0 0 32 32" width="32">
<g>
<path d="M31.749,14.955L26.646,2.627C26.238,1.453,25.247,1,24.468,1c-1.625,0-2.18,1.627-2.18,1.627   S17.87,13.341,17.594,14c-0.396,0.946-0.55,1.772-0.602,2.38L11.775,1.719L1,32h21.55l-3.536-9.938   c1.461,1.514,3.502,2.357,5.454,2.357c3.595,0,7.5-2.746,7.5-7.5C31.968,16.92,32.124,16.111,31.749,14.955z" fill="#FFFFFF"/>
<polyline points="3.834,30 11.775,7.684 19.715,30 3.834,30  "/>
<path d="M20.995,11l-1.238,3h1.623c0.329-0.797,0.771-1.866,1.238-3H20.995z M29.826,16h-1.538c0.094,0.388,0.172,0.779,0.18,0.92   c0,0.891-0.303,1.705-0.796,2.37l1.078,1.077c0.762-0.943,1.218-2.141,1.218-3.447C29.968,16.732,29.907,16.378,29.826,16z    M20.645,16h-1.535c-0.08,0.378-0.142,0.732-0.142,0.92c0,1.25,0.423,2.396,1.123,3.32l1.07-1.07   c-0.438-0.639-0.693-1.406-0.693-2.232C20.477,16.785,20.557,16.379,20.645,16z M27.939,11h-1.621c0.472,1.143,0.914,2.212,1.238,3   h1.621L27.939,11z M24.468,20.92c-0.646,0-1.247-0.168-1.786-0.439l-1.109,1.108c0.842,0.522,1.832,0.831,2.896,0.831   c1.007,0,1.947-0.275,2.759-0.747l-1.115-1.114C25.607,20.785,25.055,20.92,24.468,20.92z M24.468,6.518   C24.766,7.235,25.122,8.1,25.493,9h1.62L24.8,3.389c-0.184-0.519-0.479-0.519-0.663,0L21.82,9h1.623   C23.814,8.098,24.173,7.233,24.468,6.518z"/>
<rect fill="none" height="32" width="32"/>
</g>
</svg>
