<?xml version="1.0" encoding="UTF-8" standalone="no"?>
<!DOCTYPE svg PUBLIC "-//W3C//DTD SVG 1.1 Tiny//EN" "http://www.w3.org/Graphics/SVG/1.1/DTD/svg11-tiny.dtd">
<svg xmlns="http://www.w3.org/2000/svg" xmlns:xlink="http://www.w3.org/1999/xlink" baseProfile="tiny" height="32.001" version="1.1" viewBox="0 0 32 32.001" width="32">
<g>
<path d="M22.915,14.005C23.344,13.331,24,11.459,24,10c0-4.411-3.589-8-8-8s-8,3.588-8,8   c0,1.46,0.563,3.113,1.085,4.005C4.625,13.925,1,17.589,1,21.999c0,4.412,3.589,8.002,8,8.002c3.01,0,5.635-1.674,7-4.138   c1.365,2.464,3.99,4.138,7,4.138c4.411,0,8-3.59,8-8.002C31,17.8,27.75,14.005,22.915,14.005z" fill="#FFFFFF"/>
<rect fill="none" height="32.001" width="32"/>
<rect fill="none" height="32.001" width="32"/>
<circle cx="23" cy="21.999" fill="#040404" r="6"/>
<circle cx="9" cy="21.999" fill="#040404" r="6"/>
<path d="M19.271,23.419c0.572,1.506,2.02,2.582,3.729,2.582c2.211,0,4-1.791,4-4c0-0.787-0.234-1.517-0.626-2.133   L19.271,23.419z" fill="#3A54A5"/>
<path d="M5.29,23.479C5.878,24.954,7.313,26,9,26c2.211,0,4-1.791,4-4c0-0.766-0.226-1.471-0.597-2.078L5.29,23.479   z" fill="#6ABD45"/>
<circle cx="16" cy="10" fill="#040404" r="6"/>
<path d="M12.267,11.403c0.569,1.514,2.019,2.598,3.733,2.598c2.211,0,4-1.792,4-4.001   c0-0.792-0.236-1.525-0.634-2.146L12.267,11.403z" fill="#ED2224"/>
<path d="M19.59,8.267C18.943,6.93,17.586,6,16,6c-2.211,0-4,1.791-4,4c0,0.663,0.177,1.279,0.463,1.83L19.59,8.267z   " fill="#F7A9AB"/>
<path d="M12.59,20.268c-0.646-1.336-2.004-2.267-3.59-2.267c-2.211,0-4,1.791-4,4c0,0.662,0.177,1.278,0.463,1.83   L12.59,20.268z" fill="#CBE5BE"/>
<path d="M26.59,20.268c-0.646-1.336-2.004-2.267-3.59-2.267c-2.211,0-4,1.791-4,4c0,0.662,0.177,1.278,0.463,1.83   L26.59,20.268z" fill="#8EAEDB"/>
</g>
</svg>
