<?xml version="1.0" encoding="UTF-8"?>
<!DOCTYPE svg PUBLIC "-//W3C//DTD SVG 1.1 Tiny//EN" "http://www.w3.org/Graphics/SVG/1.1/DTD/svg11-tiny.dtd">
<svg xmlns="http://www.w3.org/2000/svg" xmlns:xlink="http://www.w3.org/1999/xlink" baseProfile="tiny" height="22px" version="1.1" viewBox="0 0 22 22" width="22px" x="0px" y="0px">
<path d="M21.53,14.888c0,0-1.171-1.171-2.339-2.339c0.084-0.084,0.214-0.117,0.251-0.233  c0.292-0.907,0.44-1.833,0.44-2.749c0-4.987-4.058-9.044-9.045-9.044S1.793,4.579,1.793,9.566s4.058,9.045,9.045,9.045  c0.932,0,1.846-0.158,2.731-0.438c0,1.413,0,2.826,0,2.826c0,0.414,0.336,0.75,0.75,0.75h3.725c0.414,0,0.75-0.336,0.75-0.75  c0,0,0-3.708,0-4.832c0.835,0,2.206,0,2.206,0c0.303,0,0.576-0.183,0.693-0.463c0.038-0.093,0.057-0.19,0.057-0.287  C21.75,15.223,21.674,15.031,21.53,14.888z M12.621,9.511c0,0,0,1.044,0,1.468c-0.207,0.206-0.787,0.786-1.535,1.533  c-0.018-0.863-0.891-1.733-1.754-1.733c0,0-0.401,0-0.699,0c-0.141-0.141-0.286-0.286-0.286-0.286  c-0.292-0.292-0.659-0.436-1.026-0.438c0.125-0.156,0.237-0.329,0.237-0.544c0,0,0-0.51,0-0.782C7.702,8.512,7.992,8.077,8.22,7.736  c0.033,0,0.103,0,0.103,0c0.921,0,1.76-0.838,1.76-1.759c0-0.037-0.021-0.07-0.023-0.107c0.3-0.044,0.592-0.15,0.812-0.369  c0.001-0.001,0.003-0.003,0.004-0.004c0.199-0.2,0.299-0.466,0.351-0.742c0.037,0.081,0.036,0.179,0.101,0.242  c0,0,0.244,0.243,0.34,0.338c-0.053,0.126-0.158,0.235-0.158,0.372c0,0.1,0.014,0.201,0.041,0.302  c0.046,0.163,0.208,0.518,0.567,0.653c0,0.003,0,0.007,0,0.009c-0.104-0.037-0.206-0.082-0.285-0.161c0,0,0.146,0.146,0.285,0.285  c0,0.297,0,0.696,0,0.696c0,0.603,0.354,0.996,0.784,1.163C12.74,8.916,12.621,9.201,12.621,9.511z" fill-opacity="0.4" stroke-opacity="0.4"/>
<path d="M11.361,16.168c-0.303,0-0.577-0.183-0.693-0.463s-0.052-0.604,0.163-0.817l4.821-4.818  c0.293-0.293,0.768-0.293,1.061,0l2.016,2.017c0.26-0.809,0.404-1.656,0.404-2.52c0-4.572-3.722-8.294-8.295-8.294  S2.543,4.994,2.543,9.566s3.722,8.295,8.295,8.295c0.975,0,1.888-0.167,2.731-0.459v-1.234h-0.107  C12.621,16.168,11.361,16.168,11.361,16.168z M6.808,15.669c-1.927-1.277-3.212-3.441-3.278-5.904  c0.725,0.725,2.27,2.269,2.27,2.269s-0.505,0.505,0,1.01c0.47,0.469,1.009,1.009,1.009,1.009V15.669z M9.332,11.528  c-0.475,0-1.01,0-1.01,0s-0.195-0.197-0.504-0.504c-0.308-0.308-0.717-0.293-1.011,0c-0.291,0.294-0.504,0.504-0.504,0.504  l-1.01-1.01c0.25-0.248,0.27-0.729,0-0.998c-0.269-0.27-0.505-0.516-0.505-0.516c-0.259-0.261-0.259-0.748,0-1.009  c0.261-0.26,0.75-0.26,1.01,0l0.505,0.505v1.01c0,0.252,0.504,0.252,0.504,0v-1.01l1.011-1.515c0,0,0,0,0.504,0  c0.505,0,1.01-0.505,1.01-1.009c0-0.506-0.505-1.009-1.01-1.009c-0.47,0-0.251,0-0.504,0s-0.253-0.505,0-0.505s1.009,0,1.009,0  s0-0.002,0.505,0.505c0.254,0.252,0.757,0.252,1.011,0c0.251-0.253,0.251-0.759,0-1.011c-0.026-0.024-0.856-0.854-1.443-1.441  c0.618-0.171,1.267-0.27,1.938-0.27c0.532,0,1.051,0.061,1.553,0.17L11.855,2.95v1.516l0.408,0.406c0.131,0.13,0.376,0.13,0.505,0  c0.131-0.129,0.131-0.374,0-0.504L12.62,4.219c-0.266-0.265,0-0.512,0-0.512s0.246-0.253,0.498,0  c0.253,0.255,0.504,0.508,0.504,0.508s-1.027,1.027-1.261,1.26c-0.232,0.234,0,0.505,0,0.505l0.505,0.505c0,0,0,0.502,0,1.007  s0.505,0.505,0.505,0.505s0.505,0,1.01,0s0.505-0.505,0.505-0.505V6.484c0,0,0.003-0.507,0.507-0.507h1.512c0,0,0,0.504,0.506,0.504  c0,0,0.109,0.152,0.142,0.227l-1.793,1.793h-1.378c-0.505,0-1.01,0.504-1.01,1.01v1.778l-3.028,3.026v-1.777  C10.343,12.092,9.808,11.528,9.332,11.528z M16.183,10.6l-4.821,4.818h2.958V21h3.725v-5.582H21L16.183,10.6z" fill="#FFFFFF"/>
<rect fill="none" height="22" width="22"/>
</svg>
