<?xml version="1.0" encoding="UTF-8" standalone="no"?>
<!DOCTYPE svg PUBLIC "-//W3C//DTD SVG 1.1 Tiny//EN" "http://www.w3.org/Graphics/SVG/1.1/DTD/svg11-tiny.dtd">
<svg xmlns="http://www.w3.org/2000/svg" xmlns:xlink="http://www.w3.org/1999/xlink" baseProfile="tiny" height="32" version="1.1" viewBox="0 0 32 32" width="32">
<g>
<polygon fill="#FFFFFF" points="27,11 27,7 23,7 23,3 1,3 1,20.998 5,20.998 5,25 9,25 9,29 31,29 31,11  "/>
<rect fill="none" height="32" width="32"/>
<path d="M3,5v14h18V5H3z M19,17H5V7h14V17z" fill="#010101"/>
<polygon fill="#010101" points="23,9 23,21 7,21 7,23 25,23 25,9  "/>
<polygon fill="#010101" points="27,13 27,25 11,25 11,27 29,27 29,13  "/>
</g>
</svg>
