<?xml version="1.0" encoding="UTF-8" standalone="no"?>
<!DOCTYPE svg PUBLIC "-//W3C//DTD SVG 1.1 Tiny//EN" "http://www.w3.org/Graphics/SVG/1.1/DTD/svg11-tiny.dtd">
<svg xmlns="http://www.w3.org/2000/svg" xmlns:xlink="http://www.w3.org/1999/xlink" baseProfile="tiny" height="32" version="1.1" viewBox="0 0 32 32" width="32">
<g>
<rect fill="none" height="32" width="32"/>
<path d="M30,25.089c0,0-1.23,0-2.344,0c0.344-0.506,4.226-2.631,4.226-6.767c0-2.295-0.991-3.63-1.882-4.37V4   c0-1.104-0.896-2-2-2H2C0.896,2,0,2.896,0,4v18c0,1.104,0.896,2,2,2h17.8c-0.536,1.055-0.901,2.29-0.901,3.738V29   c0,1.104,0.896,2,2,2H30c1.104,0,2-0.896,2-2v-1.911C32,25.984,31.104,25.089,30,25.089z" fill="#FFFFFF"/>
<path d="M23.244,20H4V6h22v6.547c0.725,0.05,1.396,0.159,2,0.349V4H2v18h19.156   C21.883,21.156,22.648,20.5,23.244,20z" fill="#010101"/>
<path d="M15,8c-3.035,0-5.5,2.461-5.5,5.499C9.5,16.534,11.965,19,15,19c3.039,0,5.5-2.466,5.5-5.501   C20.5,10.461,18.039,8,15,8z M15,17c-1.93,0-3.5-1.568-3.5-3.5c0-1.93,1.57-3.5,3.5-3.5c1.932,0,3.5,1.57,3.5,3.5   C18.5,15.432,16.932,17,15,17z" fill="#010101"/>
<path d="M23.952,27.089c0.138-1.558,1.3-2.601,3.073-4.098c1.674-1.419,2.855-2.541,2.855-4.669   c0-2.659-1.773-3.822-4.648-3.822c-1.092,0-2.168,0.159-3.232,0.431v1.904c0.762-0.246,1.555-0.443,2.424-0.443   c1.557,0,2.207,0.729,2.207,2.049c0,1.221-0.768,1.971-2.01,3.014c-1.832,1.537-3.723,3.389-3.723,6.285V29H30v-1.911H23.952z" fill="#010101"/>
<rect fill="#010101" height="2" width="3.586" x="20.414" y="8"/>
</g>
</svg>
