<?xml version="1.0" encoding="UTF-8"?>
<!DOCTYPE svg PUBLIC "-//W3C//DTD SVG 1.1 Tiny//EN" "http://www.w3.org/Graphics/SVG/1.1/DTD/svg11-tiny.dtd">
<svg xmlns="http://www.w3.org/2000/svg" xmlns:xlink="http://www.w3.org/1999/xlink" baseProfile="tiny" height="32px" version="1.1" viewBox="0 0 32 32" width="32px" x="0px" y="0px">
<rect fill="none" height="32" width="32"/>
<path d="M27.389,12.152h-6.356c-2.205,0-3.999-1.796-3.999-4.001c0-2.765,1.161-4.289,2.151-5.086  c0.846-1.679,2.409-2.957,5.026-2.957c3.678,0.087,4.816,2.548,4.922,2.75c1.147,0.822,2.256,2.373,2.256,5.293  C31.389,10.356,29.594,12.152,27.389,12.152L27.389,12.152z" fill="#FFFFFF"/>
<path d="M27.389,10.152h-6.355c-1.104,0-2-0.896-2-2c0-2.179,0.877-3.259,1.791-3.793c0.091-0.304,0.724-2.262,3.387-2.25  c2.717,0.084,3.255,1.86,3.346,2.125c1.218,0.607,1.832,1.918,1.832,3.918C29.389,9.257,28.493,10.152,27.389,10.152L27.389,10.152z  "/>
<path d="M27.389,8.153c0-1.155,0-2.312-1.734-2.312c0,0,0.578-1.732-1.443-1.732c-2.022,0-1.445,1.732-1.445,1.732  c-1.732,0-1.732,1.734-1.732,2.312H27.389z" fill="#FFFFFF"/>
<path d="M30.032,31.001H2.033c-0.875,0.117-2.531-1.055-1.838-2.79l9.875-23c0.839-1.796,3.121-1.39,3.655-0.048  l6.583,14.285l2.336-3.062c1.297-1.534,2.953-0.597,3.372,0.306l5.8,11.402C32.362,29.478,31.331,31.04,30.032,31.001L30.032,31.001  z" fill="#FFFFFF"/>
<path d="M11.907,6l7.974,17.301l4.352-5.701L30.032,29h-28L11.907,6z"/>
</svg>
