<?xml version="1.0" encoding="UTF-8" standalone="no"?>
<!DOCTYPE svg PUBLIC "-//W3C//DTD SVG 1.1 Tiny//EN" "http://www.w3.org/Graphics/SVG/1.1/DTD/svg11-tiny.dtd">
<svg xmlns="http://www.w3.org/2000/svg" xmlns:xlink="http://www.w3.org/1999/xlink" baseProfile="tiny" height="32" version="1.1" viewBox="0 0 32 32" width="32">
<g>
<rect fill="none" height="32" width="32"/>
<path d="M27.963,19.113c0,0-0.463,0.006-0.641,0.008c1.125-2.378,2.441-5.166,2.441-5.166   c0.549-1.031-0.076-2.855-1.802-2.855c0,0-3.34-0.009-6.071-0.017c1.106-2.326,2.399-5.041,2.399-5.041   c0.489-0.899,0.021-2.86-1.806-2.86h-5.11c-0.774,0-1.482,0.449-1.811,1.152l-2.949,6.301c-0.235-0.097-0.49-0.156-0.758-0.156   H7.869c-0.898,0-1.684,0.597-1.926,1.46L1.873,26.46C1.563,27.455,2.281,29,3.799,29h2.973c0.92,0,1.723-0.629,1.941-1.523   c0,0,0.184-0.744,0.363-1.486h0.803c0.176,0.736,0.352,1.474,0.352,1.474C10.443,28.363,11.25,29,12.176,29h3.49   c0.621,0,1.207-0.287,1.584-0.777c0.322-0.418,0.452-0.941,0.391-1.457l1.549,1.686c0.715,0.779,1.916,0.865,2.736,0.195   l7.326-5.983C30.531,21.549,30.188,19.268,27.963,19.113z M17.865,19.156h-2.188l-0.478-1.819l3.521,0.009L17.865,19.156z" fill="#FFFFFF"/>
<polygon fill="#010101" points="27.957,13.1 18.729,13.074 22.486,5.182 17.375,5.182 12.627,15.332 21.873,15.352 19.135,21.156    15.201,21.156 20.662,27.098 27.986,21.113 24.146,21.159  "/>
<path d="M15.666,27h-3.49l-0.717-3.012H7.51L6.771,27H3.799l4.07-14.521h3.988L15.666,27z M11.059,22.072   l-1.555-6.819l-1.596,6.819H11.059z" fill="#010101"/>
</g>
</svg>
