<?xml version="1.0" encoding="UTF-8" standalone="no"?>
<!DOCTYPE svg PUBLIC "-//W3C//DTD SVG 1.1 Tiny//EN" "http://www.w3.org/Graphics/SVG/1.1/DTD/svg11-tiny.dtd">
<svg xmlns="http://www.w3.org/2000/svg" xmlns:xlink="http://www.w3.org/1999/xlink" baseProfile="tiny" height="32" version="1.1" viewBox="0 0 32 32" width="32">
<g>
<path d="M23,15h-2.109C22.189,13.729,23,11.958,23,10c0-3.86-3.141-7-7-7c-3.859,0-7,3.14-7,7   c0,1.958,0.811,3.729,2.111,5H9c-1.957,0-6,1.711-6,7v10h26V22C29,16.711,24.957,15,23,15z" fill="#FFFFFF"/>
<path d="M23,30v-6h-1.023v6h-12v-6H9v6c-3.913,0-4,0-4,0v-8c0-4,3-5,4-5c0,0,12,0,14,0c1,0,4,1,4,5s0,8,0,8H23z"/>
<circle cx="16" cy="10" r="5"/>
<rect fill="none" height="32" width="32"/>
</g>
</svg>
