<?xml version="1.0" encoding="UTF-8" standalone="no"?>
<!DOCTYPE svg PUBLIC "-//W3C//DTD SVG 1.1 Tiny//EN" "http://www.w3.org/Graphics/SVG/1.1/DTD/svg11-tiny.dtd">
<svg xmlns="http://www.w3.org/2000/svg" xmlns:xlink="http://www.w3.org/1999/xlink" baseProfile="tiny" height="22px" version="1.1" viewBox="0 0 22 22" width="22px" x="0px" y="0px">
<rect fill="none" height="22" width="22"/>
<path d="M21.75,9.001V2.999c0-0.538-0.43-1.248-1.25-1.248h-9c-0.688,0-1.249,0.56-1.249,1.25v5.75h-0.205  L5.536,4.226C5.47,4.16,5.395,4.111,5.316,4.075c0.206-0.292,0.178-0.7-0.083-0.961l-0.89-0.892c-0.294-0.293-0.769-0.292-1.06,0  L0.47,5.035c-0.293,0.293-0.293,0.768,0,1.061l0.892,0.892C1.695,7.32,2.122,7.211,2.323,7.07c0.038,0.079,0.087,0.152,0.15,0.215  l1.466,1.466H3c-0.965,0-1.749,0.786-1.749,1.751V18.5c0,0.966,0.783,1.751,1.749,1.751h12c0.966,0,1.751-0.785,1.751-1.751v-1.25  h1.501v0.251c0,0.414,0.337,0.75,0.75,0.75h2c0.413,0,0.749-0.336,0.749-0.75v-6c0-0.413-0.336-0.75-0.749-0.75h-2  c-0.413,0-0.75,0.336-0.75,0.75v0.249H16.75l-0.018-1.499H20.5C21.337,10.251,21.75,9.53,21.75,9.001z" fill-opacity="0.4" stroke-opacity="0.4"/>
<path d="M14.999,8.751c0.593,0,1.114,0.297,1.432,0.749h4.07C20.84,9.5,21,9.202,21,9.001V3  c0-0.328-0.295-0.5-0.499-0.5H11.5C11.227,2.5,11,2.726,11,3v5.751H14.999z M18.5,3.182h2.001v1H18.5V3.182z M16,4.091  c1.105,0,2,0.896,2,2c0,1.104-0.895,2-2,2c-1.104,0-2-0.897-2-2C14,4.987,14.896,4.091,16,4.091z" fill="#FFFFFF"/>
<path d="M16,10.501C16,9.948,15.553,9.5,15,9.5H3c-0.553,0-0.999,0.447-0.999,1.001v7.998  c0,0.555,0.446,1.002,0.999,1.002h12c0.553,0,1-0.447,1-1.002V10.501z" fill="#FFFFFF"/>
<polygon fill="#FFFFFF" points="5.005,4.757 3.004,6.756 5,8.751 9.013,8.751 "/>
<rect fill="#FFFFFF" height="1.26" transform="matrix(0.707 -0.7072 0.7072 0.707 -2.4209 3.3659)" width="3.977" x="0.863" y="3.974"/>
<rect fill="#FFFFFF" height="6" width="2" x="19" y="11.501"/>
<rect fill="#FFFFFF" height="4" width="0.998" x="17.002" y="12.501"/>
</svg>
