<?xml version="1.0" encoding="UTF-8"?>
<!DOCTYPE svg PUBLIC "-//W3C//DTD SVG 1.1 Tiny//EN" "http://www.w3.org/Graphics/SVG/1.1/DTD/svg11-tiny.dtd">
<svg baseProfile="tiny" version="1.1" xmlns="http://www.w3.org/2000/svg" xmlns:xlink="http://www.w3.org/1999/xlink" width="32.071" height="32" viewBox="0 0 32.071 32">
<g>
<g>
<path fill="#FFFFFF" d="M0,9.273c0,0,2.615,2.615,2.744,2.744c-0.354,0.595-0.612,1.251-0.612,1.991v11.947    c0,2.196,1.787,3.982,3.982,3.982h14.934c2.196,0,3.982-1.786,3.982-3.982l0-0.995H32V12.018h-6.969l0,1.991    c0-2.196-1.787-3.982-3.982-3.982c0,0-6.28,0-7.623,0C12.82,9.421,11.74,8.341,10.56,7.161c0.352-0.352,0.704-0.703,0.704-0.703    L7.04,2.232L0,9.273z"/>
</g>
<path d="M27.071,14v2h-4v-2c0-1.104-0.896-2-2-2h-8.485L7.707,7.122l0.707-0.707L7,5L2.757,9.243l1.414,1.414L4.878,9.95L6.928,12   H6.07c-1.104,0-2,0.896-2,2v12c0,1.104,0.896,2,2,2h15c1.104,0,2-0.896,2-2v-5h4v2h3v-9H27.071z M21.071,26h-15V14h15V26z"/>
<rect x="0.071" fill="none" width="32" height="32"/>
</g>
</svg>
