<?xml version="1.0" encoding="UTF-8" standalone="no"?>
<!DOCTYPE svg PUBLIC "-//W3C//DTD SVG 1.1 Tiny//EN" "http://www.w3.org/Graphics/SVG/1.1/DTD/svg11-tiny.dtd">
<svg xmlns="http://www.w3.org/2000/svg" xmlns:xlink="http://www.w3.org/1999/xlink" baseProfile="tiny" height="32" version="1.1" viewBox="0 0 32.021 32" width="32.021">
<g>
<rect fill="none" height="32" width="31.936" x="0.064"/>
<path d="M9.572,3.24H9.57c-2.674,1.385-4.414,3.64-3.924,7.312C3.807,11.242,0,13.174,0,17.744   c0,3.908,3.662,8.281,3.662,8.281h24.666c0,0,3.672-2.887,3.672-6.955c0,0,0.475-2.443-3.15-5.809   c0.023-0.305,0.521-3.147-1.846-5.918c-1.357-1.391-3.283-1.957-5.68-1.771C19.361,3.75,14.794,0.535,9.572,3.24z" fill="#FFFFFF"/>
<path d="M29.982,18.609c-0.168-1.733-1.313-3.26-3.184-4.609c0.053-0.354,0.562-3.23-1.223-5.258   c-1.037-1.18-2.793-1.463-4.974-1.105c-1.092-1.152-5.383-5.07-10.117-2.621C8.107,6.25,6.948,8.234,7.814,11.98   c-1.526,0.354-4.188,1.193-5.405,3.746c-1.624,3.741,2.269,8.299,2.269,8.299h22.871C29.152,22.396,30.201,20.867,29.982,18.609z    M26.73,22.025H5.75c-2.518-3.869-1.677-5.119-1.514-5.496c0.707-1.615,2.828-2.322,4.029-2.602l1.732-0.521L9.531,9.604   c0-1.104,0.281-2.084,1.873-2.811c4.549-2.187,8.48,2.99,8.48,2.99s3.22-0.791,4.266,0.357c1.33,1.591,0.5,3.514,0.574,4.828   c2.723,1.877,3.176,2.783,3.271,3.828C27.994,18.797,28.278,20.08,26.73,22.025z" fill="#010101"/>
</g>
</svg>
