<?xml version="1.0" encoding="UTF-8" standalone="no"?>
<!DOCTYPE svg PUBLIC "-//W3C//DTD SVG 1.1 Tiny//EN" "http://www.w3.org/Graphics/SVG/1.1/DTD/svg11-tiny.dtd">
<svg xmlns="http://www.w3.org/2000/svg" xmlns:xlink="http://www.w3.org/1999/xlink" baseProfile="tiny" height="32" version="1.1" viewBox="0 0 32 32" width="32">
<g>
<g>
<path d="M12.008,0c-0.773,0-1.479,0.446-1.809,1.145L4.102,14.049C3.584,15.32,4.251,16.9,5.911,16.9    c0,0,5.324,0,8.726,0c-0.771,1.643-1.211,2.576-1.637,3.479c-1.423,0-3.78,0-3.78,0c-1.926,0-2.468,2.226-1.473,3.351l7.012,7.623    c0.715,0.777,1.911,0.865,2.732,0.201l9.409-7.623c1.394-1.201,0.685-3.551-1.26-3.551c0,0-0.957,0-1.773,0    c1.417-2.99,3.547-7.49,3.547-7.49c0.588-1.277-0.287-2.853-1.803-2.853c0,0-5.277-0.015-8.682-0.024    c1.406-2.917,3.448-7.148,3.448-7.148C20.793,2.164,20.459,0,18.576,0H12.008z" fill="#FFFFFF"/>
</g>
<rect fill="none" height="31.973" width="32" y="0.013"/>
<polygon fill="#010101" points="25.605,12.037 13.748,12.004 18.576,1.999 12.008,1.999 5.91,14.903 17.785,14.903 14.27,22.379    9.219,22.379 16.23,30.001 25.641,22.38 20.707,22.38  "/>
</g>
</svg>
