<?xml version="1.0" encoding="UTF-8" standalone="no"?>
<!DOCTYPE svg PUBLIC "-//W3C//DTD SVG 1.1 Tiny//EN" "http://www.w3.org/Graphics/SVG/1.1/DTD/svg11-tiny.dtd">
<svg xmlns="http://www.w3.org/2000/svg" xmlns:xlink="http://www.w3.org/1999/xlink" baseProfile="tiny" height="32" version="1.1" viewBox="0 0 32 32" width="32">
<g>
<g>
<path d="M3.323,16c0,7.995,6.563,14.5,14.631,14.5c4.082,0,7.612-1.537,10.213-4.443    c0.804-0.811,0.908-3.763-2.231-3.189C24.621,23.43,18,22.259,18,16c0-3.852,3.169-7.518,8.678-6.984    c1.66-0.042,2.609-1.939,1.543-3.271C26.066,3.127,22.132,1.5,17.955,1.5C9.886,1.5,3.323,8.005,3.323,16z" fill="#FFFFFF"/>
</g>
<rect fill="none" height="32" width="32"/>
<path d="M26.677,24.725c-2.213,2.473-5.209,3.775-8.723,3.775c-6.906,0-12.631-5.6-12.631-12.5c0-6.901,5.725-12.5,12.631-12.5   c3.514,0,6.519,1.116,8.723,3.516C20.15,6.549,16,10.766,16,16C16,23.383,23.628,25.879,26.677,24.725z"/>
</g>
</svg>
