<?xml version="1.0" encoding="UTF-8" standalone="no"?>
<!DOCTYPE svg PUBLIC "-//W3C//DTD SVG 1.1 Tiny//EN" "http://www.w3.org/Graphics/SVG/1.1/DTD/svg11-tiny.dtd">
<svg xmlns="http://www.w3.org/2000/svg" xmlns:xlink="http://www.w3.org/1999/xlink" baseProfile="tiny" height="32" version="1.1" viewBox="0 0 32 32" width="32">
<g>
<path d="M31.541,16.922c-0.102-2.288-0.576-6.522-2.564-7.121c0.262-0.653,0.408-1.364,0.408-2.109   C29.384,4.66,26.725,2,23.691,2c-2.805,0-5.205,2.156-5.621,4.866c-7.458-0.827-8.812,0.143-9.318,0.563   c-1.533,1.204-2.699,5.122-3.406,8.207c0,0-0.881,2.576,0.999,3.42c1.176,0.588,2.16-0.006,2.876-0.725   c0.365-0.367-0.207,0.213-1.342,1.271c-4.131,3.858-6.916,6.578-6.894,8.854c0.168,2.534,2.139,2.521,2.139,2.521   c2.998,0.515,12.435-7.674,13.601-8.365c0.047,0.008,0.105,0.029,0.164,0.051c-1.428,1.506-2.637,3.215-2.637,4.744   c0,0.135,0.057,1.771,1.695,2.57c0,0,3.174,1.732,10.512-6.269c0.412-0.468,0.725-1.624,0.387-2.319   c1.713,0.978,2.783,0.422,3.191,0.166C31.512,20.634,31.669,18.527,31.541,16.922z" fill="#FFFFFF"/>
<path d="M23.691,4c1.897,0,3.692,1.696,3.692,3.692c0,2.196-1.795,3.692-3.692,3.692C21.697,11.384,20,9.888,20,7.692   C20,5.696,21.697,4,23.691,4z"/>
<path d="M28.152,19.775c-1.299-0.699-6.188-2.196-7.687-3.394c-0.696,0.697-0.998,1.196-0.998,1.196s4.689,3.691,5.49,4.391   c0.696,0.799-6.688,6.688-8.185,6.188c-2.194-0.998,3.193-5.688,3.193-5.688s-2.695-2.895-4.391-1.496   C13.88,22.27,4.101,30.154,3.103,28.855C1.806,26.66,13.181,18.277,12.882,17.08c-0.199-0.697,1.496-2.895,2.994-4.69   c0,0,0,0-4.49-0.997c-1.197,0.798-1.197,2.295-2.895,4.69c-1.997,2.692-1.197,0-1.197,0S8.691,9.996,9.99,8.997   c1.195-0.997,9.08,0,9.08,0S20,12,22,13s5.154,4.379,5.154,4.379s0-6.386,1.197-5.688c0.996,0.999,1.196,5.389,1.196,5.389   S29.848,20.771,28.152,19.775z"/>
<rect fill="none" height="32" width="32"/>
</g>
</svg>
