<?xml version="1.0" encoding="UTF-8" standalone="no"?>
<!DOCTYPE svg PUBLIC "-//W3C//DTD SVG 1.1 Tiny//EN" "http://www.w3.org/Graphics/SVG/1.1/DTD/svg11-tiny.dtd">
<svg xmlns="http://www.w3.org/2000/svg" xmlns:xlink="http://www.w3.org/1999/xlink" baseProfile="tiny" height="32" version="1.1" viewBox="0 0 32 32" width="32">
<g>
<rect fill="none" height="32" width="32"/>
<path d="M32,21h-4v-1c0-1.104-0.895-2-2-2h-2c-1.104,0-2,0.896-2,2v1H0v7h22v1c0,1.104,0.896,2,2,2h2   c1.105,0,2-0.896,2-2v-1h4V21z" fill="#FFFFFF"/>
<rect fill="#010101" height="3" width="20" x="2" y="23"/>
<rect fill="#010101" height="9" width="2" x="24" y="20"/>
<rect fill="#B2B2B2" height="3" width="2" x="28" y="23"/>
<path d="M21.584,1.493c-0.75,0-1.941,0.131-3.034,0.801V1.87c-1.81-0.189-4.33-0.689-6.084-0.039V1.595H4.825v5.227   c0,0,0.404,0,0.767,0v2.849c-0.363,0-0.767,0-0.767,0v5.227h7.293c0.482,0.063,3.622,0.616,5.614-1.386   C18.998,14.788,20.641,15,21.584,15c1.682,0,5.591-0.671,5.591-6.882C27.175,2.138,23.266,1.493,21.584,1.493z" fill="#FFFFFF"/>
<g>
<path d="M10.466,12.897H6.825V11.67h0.767V4.822H6.825V3.595h3.641v1.227H9.701v6.849h0.766L10.466,12.897    L10.466,12.897z" fill="#010101"/>
<path d="M16.55,4.924c-0.588-0.128-1.049-0.205-1.674-0.205c-0.83,0-1.343,0.384-1.343,1.074    c0,0.741,0.55,1.085,1.483,1.571c1.239,0.652,2.005,1.393,2.005,2.76c0,2.033-1.38,2.875-3.462,2.875    c-0.717,0-1.457-0.09-2.146-0.256v-1.265c0.65,0.166,1.315,0.294,2.006,0.294c1.01,0,1.508-0.473,1.508-1.226    c0-0.793-0.474-1.086-1.699-1.777c-1.049-0.587-1.803-1.29-1.803-2.684c0-1.75,1.329-2.594,3.17-2.594    c0.652,0,1.303,0.063,1.955,0.191V4.924z" fill="#010101"/>
<path d="M21.584,13c-3.105,0-3.604-2.684-3.604-4.882c0-2.185,0.574-4.625,3.604-4.625s3.591,2.44,3.591,4.625    C25.175,10.329,24.689,13,21.584,13z M21.584,4.719c-1.316,0-1.419,1.662-1.419,3.399c0,1.738,0.153,3.655,1.419,3.655    c1.316,0,1.406-1.891,1.406-3.655C22.991,6.458,22.863,4.719,21.584,4.719z" fill="#010101"/>
</g>
</g>
</svg>
