<?xml version="1.0" encoding="UTF-8"?>
<!DOCTYPE svg PUBLIC "-//W3C//DTD SVG 1.1 Tiny//EN" "http://www.w3.org/Graphics/SVG/1.1/DTD/svg11-tiny.dtd">
<svg xmlns="http://www.w3.org/2000/svg" xmlns:xlink="http://www.w3.org/1999/xlink" baseProfile="tiny" height="32px" version="1.1" viewBox="0 0 32 32" width="32px" x="0px" y="0px">
<g>
<rect fill="none" height="32" width="31.998"/>
<path d="M23.941,19C27.247,19,32,19,32,19l-0.002-6c0,0-4.751,0-8.057,0c-0.062-0.168-0.13-0.334-0.203-0.496   c2.338-2.337,5.697-5.697,5.697-5.697l-4.246-4.24c0,0-3.355,3.357-5.693,5.695C19.333,8.188,19.167,8.121,19,8.057   C19,4.751,19,0,19,0h-6c0,0,0,4.751,0,8.057c-0.168,0.064-0.334,0.131-0.497,0.204c-2.338-2.338-5.694-5.694-5.694-5.694   L2.566,6.809c0,0,3.358,3.358,5.694,5.695C8.187,12.666,8.121,12.832,8.057,13C4.751,13,0,13,0,13v6c0,0,4.751,0,8.057,0   c0.064,0.168,0.13,0.334,0.204,0.496c-2.336,2.339-5.694,5.697-5.694,5.697l4.238,4.244c0,0,3.359-3.359,5.698-5.698   c0.163,0.073,0.329,0.14,0.497,0.204c0,3.306,0,8.057,0,8.057h6c0,0,0-4.751,0-8.057c0.168-0.064,0.334-0.131,0.496-0.204   c2.338,2.339,5.693,5.698,5.693,5.698l4.242-4.246c0,0-3.356-3.356-5.693-5.695C23.811,19.334,23.878,19.168,23.941,19z" fill="#FFFFFF"/>
<path d="M14.999,7.564c0.329-0.039,0.661-0.064,1-0.064c0.338,0,0.671,0.025,1,0.064V2h-2V7.564z"/>
<path d="M7.5,16c0-0.339,0.025-0.672,0.064-1H2v2h5.564C7.525,16.672,7.5,16.339,7.5,16z"/>
<path d="M22.667,10.746l3.938-3.938l-1.416-1.414l-3.936,3.937C21.779,9.746,22.253,10.221,22.667,10.746z"/>
<path d="M5.395,6.809l3.937,3.937c0.415-0.524,0.889-0.999,1.414-1.414L6.809,5.395L5.395,6.809z"/>
<path d="M24.434,15c0.038,0.328,0.063,0.661,0.063,1s-0.025,0.672-0.063,1h5.563v-2H24.434z"/>
<path d="M21.252,22.669l3.937,3.938l1.414-1.416l-3.936-3.937C22.252,21.78,21.778,22.254,21.252,22.669z"/>
<path d="M9.332,21.255l-3.937,3.938l1.412,1.414l3.938-3.938C10.22,22.254,9.746,21.78,9.332,21.255z"/>
<path d="M14.999,24.436V30h2v-5.564c-0.329,0.039-0.662,0.064-1,0.064C15.66,24.5,15.328,24.475,14.999,24.436z"/>
<path d="M9.499,16c0,3.584,2.916,6.5,6.5,6.5c3.584,0,6.5-2.916,6.5-6.5s-2.916-6.5-6.5-6.5C12.415,9.5,9.499,12.416,9.499,16z"/>
<circle cx="15.999" cy="16" fill="#FFFFFF" r="4.5"/>
</g>
</svg>
