<?xml version="1.0" encoding="UTF-8" standalone="no"?>
<!DOCTYPE svg PUBLIC "-//W3C//DTD SVG 1.1 Tiny//EN" "http://www.w3.org/Graphics/SVG/1.1/DTD/svg11-tiny.dtd">
<svg xmlns="http://www.w3.org/2000/svg" xmlns:xlink="http://www.w3.org/1999/xlink" baseProfile="tiny" height="32" version="1.1" viewBox="0 0 32 32" width="32">
<g>
<rect fill="none" height="32" width="32"/>
<g>
<path d="M13.492,0c-1.105,0-2,0.895-2,2c0,0,0,0.445,0,0.838c-1.34,0.434-2.59,1.049-3.766,1.846    C6.965,3.922,6.168,3.125,6.168,3.125c-0.781-0.781-2.047-0.781-2.828,0L0.648,5.816c-1.07,1.201-0.43,2.404,0,2.828    c0,0,1.113,1.117,1.984,1.988c-0.945,1.994-1.57,4.121-1.57,6.328l0,0c0,4.942,3.219,14.524,14.969,14.974    C24.285,31.934,31,25.217,31,16.961c0-2.207-0.621-4.336-1.57-6.328c0.871-0.871,1.984-1.988,1.984-1.988    c0.391-0.391,1.096-1.594,0-2.828l-2.691-2.691c-0.781-0.781-2.047-0.781-2.828,0c0,0-0.797,0.797-1.559,1.559    c-1.176-0.797-2.426-1.412-3.762-1.846c0-0.393,0-0.838,0-0.838c0-1.105-0.895-2-2-2L13.492,0L13.492,0z" fill="#FFFFFF"/>
</g>
<path d="M30,7.23l-2.691-2.691L24.598,7.25c-1.684-1.484-3.742-2.547-6.022-3.002V2h-5.082v2.248   C11.211,4.703,9.148,5.766,7.465,7.25L4.754,4.539L2.063,7.23l2.941,2.941C3.781,12.15,3.063,14.47,3.063,16.96   c0,9.108,7.719,12.994,12.969,12.974C23.184,29.904,29,24.119,29,16.961c0-2.49-0.715-4.811-1.941-6.789L30,7.23z M16.031,25.941   c-4.957,0-8.977-4.021-8.977-8.978s4.02-8.98,8.977-8.98c4.961,0,8.981,4.023,8.981,8.98S20.992,25.941,16.031,25.941z"/>
<path d="M16.031,14.949c-0.185,0-0.36,0.033-0.529,0.08l-3.893-3.891l-1.473,1.473l3.936,3.934   c-0.027,0.131-0.041,0.266-0.041,0.404c0,1.105,0.895,2,2,2c1.106,0,2-0.895,2-2C18.031,15.846,17.137,14.949,16.031,14.949z" fill="#040404"/>
</g>
</svg>
