<?xml version="1.0" encoding="UTF-8" standalone="no"?>
<!DOCTYPE svg PUBLIC "-//W3C//DTD SVG 1.1 Tiny//EN" "http://www.w3.org/Graphics/SVG/1.1/DTD/svg11-tiny.dtd">
<svg width="34px" height="34px" viewBox="0 0 34 34">
<path d="M32.953,13.466h-6.202c-0.053-0.203-0.106-0.407-0.174-0.604l4.632-4.66L26.993,3.98l-4.26,4.29 c-0.846-0.497-1.791-0.887-2.822-1.146V0.76h-5.964v6.318c-1.039,0.247-2,0.624-2.853,1.125L6.896,3.982L2.686,8.205l4.595,4.621 c-0.071,0.208-0.128,0.423-0.183,0.64H1.047v5.967h6.62c0.562,1.427,1.317,2.854,2.029,4.187c0.471,0.879,0.977,1.791,1.542,2.622 v7.001h11.131v-7.045l0.01-0.014c0.338-0.537,0.872-1.387,1.229-1.966c0.977-1.582,1.902-3.207,2.55-4.785h6.795V13.466z" fill="#FFFFFF"/>
<path d="M16.771,8.748c-4.478,0-7.952,2.646-7.952,6.922c0,2.029,1.36,4.607,2.642,7.006c0.573,1.074,1.154,2.103,1.797,2.949 c-0.008,0-0.017,0-0.017,0v5.617h7.128v-5.617c0.001-0.005,0.983-1.563,1.537-2.458c1.528-2.477,3.135-5.358,3.135-7.497 C25.04,11.394,21.251,8.748,16.771,8.748z M15.399,28.996v-1.575h2.693v1.575H15.399z"/>
<path d="M16.771,10.749c-2.963,0-5.952,1.521-5.952,4.92c0,1.561,1.334,4.059,2.404,6.063c0.508,0.949,1.056,1.93,1.627,2.684 l0.406,0.536l-0.011,0.469h0.154h2.692h0.275v-0.269l0.211-0.422c0.002-0.002,0.072-0.132,0.206-0.345 c0.271-0.432,0.983-1.562,1.421-2.271c0.775-1.255,2.835-4.597,2.835-6.445C23.04,12.288,19.791,10.749,16.771,10.749L16.771,10.749 z"/>
<path d="M16.771,10.749c-2.963,0-5.952,1.521-5.952,4.92c0,1.561,1.334,4.059,2.404,6.063 c0.508,0.949,2.022,3.688,2.022,3.688h3.122c0,0,1.4-2.597,1.838-3.307c0.775-1.255,2.835-4.597,2.835-6.445 C23.04,12.288,19.791,10.749,16.771,10.749L16.771,10.749z" fill="#FFFFFF"/>
<rect height="3.848" width="1.966" x="15.946" y="2.76"/>
<rect height="1.967" width="3.85" x="27.104" y="15.465"/>
<rect height="1.967" width="3.85" x="3.047" y="15.465"/>
<polygon points="25.924,10.683 24.537,9.292 26.999,6.814 28.387,8.205 "/>
<polygon points="6.895,6.815 5.509,8.206 7.971,10.684 9.358,9.294 "/>
<rect fill="none" height="34" width="34"/>
</svg>