<?xml version="1.0" encoding="UTF-8" standalone="no"?>
<!DOCTYPE svg PUBLIC "-//W3C//DTD SVG 1.1 Tiny//EN" "http://www.w3.org/Graphics/SVG/1.1/DTD/svg11-tiny.dtd">
<svg xmlns="http://www.w3.org/2000/svg" xmlns:xlink="http://www.w3.org/1999/xlink" baseProfile="tiny" height="32" version="1.1" viewBox="0 0 32 32" width="32">
<g>
<g>
<path d="M13.048,2.5c-0.896,0-1.684,0.597-1.926,1.46l-6.446,23c-0.429,1.954,1.3,2.54,1.926,2.54h4.708    c0.922,0,1.724-0.629,1.943-1.523c0,0,0.449-1.836,0.795-3.246c1.168,0,1.934,0,3.106,0c0.336,1.412,0.77,3.232,0.77,3.232    c0.215,0.9,1.02,1.537,1.946,1.537h5.526c0.621,0,2.271-0.512,1.937-2.508l-6.033-23C21.07,3.113,20.275,2.5,19.367,2.5H13.048z" fill="#FFFFFF"/>
</g>
<rect fill="none" height="32" width="32"/>
<path d="M25.398,27.5h-5.527l-1.137-4.771H12.48L11.31,27.5H6.603l6.446-23h6.318L25.398,27.5z M18.102,19.695   l-2.463-10.8l-2.527,10.802h4.991V19.695z" fill="#010101"/>
</g>
</svg>
