<?xml version="1.0" encoding="UTF-8" standalone="no"?>
<!DOCTYPE svg PUBLIC "-//W3C//DTD SVG 1.1 Tiny//EN" "http://www.w3.org/Graphics/SVG/1.1/DTD/svg11-tiny.dtd">
<svg xmlns="http://www.w3.org/2000/svg" xmlns:xlink="http://www.w3.org/1999/xlink" baseProfile="tiny" height="32" version="1.1" viewBox="0 0 32 32" width="32">
<g>
<path d="M23.609,7.523c-1.43,0-3.392,0.336-4.859,1.856V8.138l-1.616-0.316c-1.011-0.198-4.153-0.776-6.671,0.536   V7.663H1.5v5.671c0,0,0.523,0,1.045,0v5.332c-0.521,0-1.045,0-1.045,0v5.671h8.962v-0.054c0.738,0.113,1.482,0.193,2.213,0.193   c2.621,0,4.582-0.858,5.688-2.401c1.496,1.979,3.687,2.401,5.244,2.401c2.574,0,6.892-1.125,6.892-8.65   C30.5,8.602,26.182,7.523,23.609,7.523z" fill="#FFFFFF"/>
<path d="M8.462,22.337H3.5v-1.671h1.045v-9.332H3.5V9.663h4.962v1.671H7.417v9.332h1.045V22.337z" fill="#010101"/>
<path d="M16.75,11.474c-0.802-0.175-1.428-0.279-2.281-0.279c-1.131,0-1.828,0.522-1.828,1.462   c0,1.01,0.748,1.479,2.02,2.141c1.689,0.889,2.733,1.897,2.733,3.763c0,2.768-1.88,3.916-4.719,3.916   c-0.975,0-1.984-0.121-2.925-0.349v-1.724c0.888,0.227,1.793,0.4,2.733,0.4c1.375,0,2.055-0.645,2.055-1.672   c0-1.08-0.645-1.48-2.316-2.42c-1.428-0.801-2.454-1.758-2.454-3.656c0-2.385,1.811-3.534,4.317-3.534   c0.889,0,1.775,0.087,2.664,0.261V11.474z" fill="#010101"/>
<path d="M23.609,22.477c-4.231,0-4.91-3.656-4.91-6.649c0-2.978,0.783-6.303,4.91-6.303   c4.125,0,4.891,3.325,4.891,6.303C28.5,18.838,27.839,22.477,23.609,22.477z M23.609,11.195c-1.795,0-1.935,2.263-1.935,4.631   c0,2.367,0.209,4.979,1.935,4.979c1.793,0,1.914-2.578,1.914-4.979C25.523,13.563,25.35,11.195,23.609,11.195z" fill="#010101"/>
<rect fill="none" height="32" width="32"/>
</g>
</svg>
