<?xml version="1.0" encoding="UTF-8" standalone="no"?>
<!DOCTYPE svg PUBLIC "-//W3C//DTD SVG 1.1 Tiny//EN" "http://www.w3.org/Graphics/SVG/1.1/DTD/svg11-tiny.dtd">
<svg xmlns="http://www.w3.org/2000/svg" xmlns:xlink="http://www.w3.org/1999/xlink" baseProfile="tiny" height="32.001" version="1.1" viewBox="0 0 32 32.001" width="32">
<g>
<polygon fill="#FFFFFF" points="26,10 26,2 0,2 0,24.001 8,24.001 8,30.001 32,30.001 32,10  "/>
<rect fill="#040404" height="2" width="2" x="9.916" y="8"/>
<rect fill="#040404" height="2" width="2" x="17.916" y="8"/>
<rect fill="#040404" height="2" width="2" x="13.916" y="8"/>
<rect fill="#040404" height="2" width="2" x="5.916" y="8"/>
<rect fill="#040404" height="2" width="2" x="5.916" y="16.001"/>
<rect fill="none" height="32.001" width="32"/>
<path d="M23.916,12V4h-22v18.001H10v6h20V12H23.916z M10,20.001H3.916V5.999h18V12H10V20.001z M12,26.001v-2.864   c0.913-0.48,2.578-1.349,3.059-1.599c0.79,0.424,1.443,0.771,2.001,1.063L14,26.001H12z M28,20.001l-5.555-3.379l-4.141,4.599   l-3.243-1.689L12,21.13V14h16V20.001z" fill="#040404"/>
</g>
</svg>
