<?xml version="1.0" encoding="UTF-8"?>
<!DOCTYPE svg PUBLIC "-//W3C//DTD SVG 1.1 Tiny//EN" "http://www.w3.org/Graphics/SVG/1.1/DTD/svg11-tiny.dtd">
<svg xmlns="http://www.w3.org/2000/svg" xmlns:xlink="http://www.w3.org/1999/xlink" baseProfile="tiny" height="32px" version="1.1" viewBox="0 0 32 32" width="32px" x="0px" y="0px">
<g>
<rect fill="none" height="32" width="32"/>
</g>
<g>
<path d="M27.963,19.113c0,0-0.463,0.006-0.641,0.008c1.125-2.378,2.441-5.166,2.441-5.166   c0.707-1.491-0.53-2.852-1.801-2.855c0,0-3.34-0.009-6.072-0.017c1.107-2.326,2.4-5.041,2.4-5.041   c0.566-1.183-0.186-2.86-1.805-2.86h-5.111c-0.775,0-1.482,0.449-1.811,1.152l-4.062,8.68C7.22,13.163,2.299,16.502,1,19.72   c1.29,2.576,5.124,6.48,10.799,6.48c1.696,0,3.222-0.316,4.574-0.812l2.816,3.062c0.715,0.779,1.916,0.865,2.736,0.195l7.326-5.983   C30.756,21.438,29.792,19.093,27.963,19.113z" fill="#FFFFFF"/>
<path d="M24.146,21.159l3.811-8.06l-9.229-0.025l3.758-7.893h-5.111l-3.729,7.971c2.148,0.328,3.92,1.183,5.328,2.193l2.898,0.006   l-0.837,1.774c1.114,1.143,1.823,2.184,2.163,2.594c-0.596,1.262-2.291,3.33-4.915,4.791l2.378,2.586l7.324-5.983L24.146,21.159z"/>
<path d="M11.799,23.08c-2.16,0-5.279-1.44-6.72-3.36c1.44-2.16,4.56-3.6,6.72-3.6c2.641,0,5.4,1.439,7.08,3.6   C17.439,21.64,14.439,23.08,11.799,23.08 M11.799,14.68c-3.119,0-6.959,1.92-8.64,5.04c1.681,3.12,5.761,4.801,8.64,4.801   c3.48,0,7.561-1.92,9.24-4.801C19.119,16.84,15.279,14.68,11.799,14.68z"/>
<path d="M15.039,19.72c0,1.44-1.32,2.881-3,2.881s-2.88-1.44-2.88-2.881c0-1.68,1.2-2.88,2.88-2.88S15.039,18.04,15.039,19.72"/>
</g>
</svg>
