<?xml version="1.0" encoding="UTF-8"?>
<!DOCTYPE svg PUBLIC "-//W3C//DTD SVG 1.1 Tiny//EN" "http://www.w3.org/Graphics/SVG/1.1/DTD/svg11-tiny.dtd">
<svg xmlns="http://www.w3.org/2000/svg" xmlns:xlink="http://www.w3.org/1999/xlink" baseProfile="tiny" height="22" version="1.1" viewBox="0 0 22 22" width="22">
<g>
<rect fill="none" height="22" width="22"/>
<path d="M2.037,20.8h1.621c0.374,0,0.699-0.261,0.78-0.626l0.264-1.186h0.868l0.254,1.181   C5.902,20.536,6.227,20.8,6.605,20.8H8.51c0.556-0.001,0.916-0.595,0.777-0.984l-2.078-8.742c-0.086-0.357-0.408-0.615-0.778-0.615   H4.257c-0.365,0-0.686,0.251-0.775,0.604l-2.22,8.741C1.097,20.205,1.472,20.8,2.037,20.8z" fill-opacity="0.4" stroke-opacity="0.4"/>
<path d="M20.063,7.704l-5.657-0.021l2.317-5.368c0.28-0.595-0.267-1.126-0.735-1.115h-3.803   c-0.32,0-0.611,0.191-0.738,0.486l-3.533,8.339c-0.254,0.648,0.324,1.133,0.737,1.113l5.67,0.011l-1.356,3.171h-2.396   c-0.737-0.037-1.018,0.854-0.615,1.312l4.061,4.879c0.286,0.335,0.739,0.444,1.151,0.081l5.451-4.912   c0.48-0.35,0.355-1.365-0.545-1.396l-1.627,0.021l2.351-5.487C21.019,8.377,20.675,7.674,20.063,7.704z" fill-opacity="0.4" stroke-opacity="0.4"/>
<path d="M8.509,20.002H6.605l-0.391-1.812H4.06l-0.402,1.812H2.037l2.221-8.741h2.175L8.509,20.002z M5.996,17.037   L5.149,12.93l-0.871,4.107H5.996z" fill="#FFFFFF"/>
<g>
<g>
<polygon fill="#FFFFFF" points="20.06,8.504 13.193,8.482 15.988,2 12.185,2 8.652,10.338 15.533,10.354 13.494,15.121      10.568,15.121 14.63,20 20.082,15.086 17.224,15.123    "/>
</g>
</g>
</g>
</svg>
