<?xml version="1.0" encoding="UTF-8" standalone="no"?>
<!DOCTYPE svg PUBLIC "-//W3C//DTD SVG 1.1 Tiny//EN" "http://www.w3.org/Graphics/SVG/1.1/DTD/svg11-tiny.dtd">
<svg xmlns="http://www.w3.org/2000/svg" xmlns:xlink="http://www.w3.org/1999/xlink" baseProfile="tiny" height="32.001" version="1.1" viewBox="0 0 32 32.001" width="32">
<g>
<rect fill="none" height="31.973" width="32" y="0.013"/>
<path d="M31.414,25.391l-6.732-6.729c1.297-2.74,2.731-5.771,2.731-5.771c0.588-1.277-0.287-2.853-1.802-2.853   c0,0-5.278-0.015-8.684-0.024c1.407-2.917,3.449-7.148,3.449-7.148C20.793,2.164,20.459,0,18.576,0h-6.568   c-0.773,0-1.479,0.446-1.809,1.145L9.221,3.216L7.43,1.427c-0.537-0.537-1.791-1.037-2.828,0L3.188,2.841   c-0.781,0.781-0.781,2.045,0,2.826L6.5,8.976l-2.397,5.073C3.585,15.32,4.252,16.9,5.912,16.9c0,0,5.115,0,8.521,0l0.139,0.14   c-0.729,1.554-1.158,2.463-1.571,3.341c-1.423,0-3.78,0-3.78,0c-1.926,0-2.468,2.225-1.473,3.352l7.012,7.623   c0.715,0.776,1.911,0.863,2.732,0.199l6.41-5.191l3.271,3.268c0.979,0.979,2.302,0.528,2.828,0l1.414-1.412   C32.195,27.436,32.195,26.171,31.414,25.391z" fill="#FFFFFF"/>
<polygon fill="#010101" points="18.027,12.016 23.18,17.162 25.605,12.037  "/>
<polygon fill="#010101" points="18.576,1.999 12.008,1.999 10.723,4.718 15.136,9.127  "/>
<polygon fill="#010101" points="14.27,22.379 9.219,22.379 16.23,30.001 22.479,24.941 16.074,18.542  "/>
<polygon fill="#010101" points="8.002,10.477 5.91,14.903 12.432,14.903  "/>
<rect fill="#010101" height="2" transform="matrix(-0.7074 -0.7068 0.7068 -0.7074 18.5635 38.7421)" width="33.903" x="0.349" y="14.529"/>
</g>
</svg>
