<?xml version="1.0" encoding="UTF-8"?>
<!DOCTYPE svg PUBLIC "-//W3C//DTD SVG 1.1 Tiny//EN" "http://www.w3.org/Graphics/SVG/1.1/DTD/svg11-tiny.dtd">
<svg xmlns="http://www.w3.org/2000/svg" xmlns:xlink="http://www.w3.org/1999/xlink" baseProfile="tiny" height="22" version="1.1" viewBox="0 0 22 22" width="22">
<g>
<rect fill="none" height="22" width="22"/>
<path d="M2.482,18.417h16.854c0.959-0.004,1.732-0.777,1.736-1.735V5.445c-0.004-0.961-0.777-1.731-1.736-1.735   H2.482C1.523,3.714,0.75,4.484,0.746,5.445v11.236C0.75,17.64,1.521,18.413,2.482,18.417z" fill-opacity="0.4" stroke-opacity="0.4"/>
<path d="M19.335,4.511H2.483c-0.514,0-0.936,0.421-0.936,0.936v11.234c0,0.515,0.422,0.937,0.936,0.937h16.853   c0.514,0,0.936-0.422,0.936-0.937V5.446C20.271,4.932,19.849,4.511,19.335,4.511z M10.909,15.447c-2.326,0-4.213-1.89-4.213-4.213   c0-2.327,1.887-4.213,4.213-4.213c2.327,0,4.214,1.886,4.214,4.213C15.123,13.558,13.236,15.447,10.909,15.447z M19.335,7.659   h-3.746V5.787h3.746V7.659z" fill="#FFFFFF"/>
<path d="M7.632,11.234c0,1.807,1.47,3.276,3.276,3.276s3.276-1.47,3.276-3.276s-1.47-3.277-3.276-3.277   S7.632,9.428,7.632,11.234z" fill="#FFFFFF"/>
</g>
</svg>
