<?xml version="1.0" encoding="UTF-8"?>
<!DOCTYPE svg PUBLIC "-//W3C//DTD SVG 1.1 Tiny//EN" "http://www.w3.org/Graphics/SVG/1.1/DTD/svg11-tiny.dtd">
<svg baseProfile="tiny" height="34px" version="1.1" viewBox="48.939 -0.286 34 34" width="34px" x="0px" xmlns="http://www.w3.org/2000/svg" xmlns:xlink="http://www.w3.org/1999/xlink" y="0px">
<path d="M50.372,1.146v31.133h31.133V1.146H50.372z" fill="#FFFFFF"/>
<rect fill="none" height="34" width="34" x="48.939" y="-0.286"/>
<g>
<rect height="27.094" width="27.094" x="52.392" y="3.202"/>
<path d="M60.371,11.846c-1.737,0-3.142-1.389-3.142-3.105c0-1.716,1.404-3.105,3.142-3.105   c0.232,0,0.457,0.029,0.675,0.08c-0.796-0.803-1.899-1.304-3.129-1.304c-2.422,0-4.382,1.94-4.382,4.331   c0,2.393,1.962,4.331,4.382,4.331c1.227,0,2.334-0.499,3.13-1.301C60.828,11.819,60.605,11.846,60.371,11.846z" fill="#FFFFFF"/>
<ellipse cx="66.413" cy="9.565" fill="#FFFFFF" rx="4.473" ry="4.236"/>
<path d="M74.092,28.766v-6.73l-1.507,0.029v6.694L60.775,28.73v-6.694l-1.686,0.029v6.659l-3.859-0.006l0.054-7.669   c-0.106-4.286,1.743-4.936,2.697-5.226c1.703-0.513,4.862-0.499,5.62-0.476l5.506-0.047c0,0,4.027-0.149,6.082,0.473   c0.954,0.287,2.805,0.939,2.698,5.221l0.054,7.78L74.092,28.766z" fill="#FFFFFF"/>
</g>
</svg>
