<?xml version="1.0" encoding="UTF-8"?>
<!DOCTYPE svg PUBLIC "-//W3C//DTD SVG 1.1 Tiny//EN" "http://www.w3.org/Graphics/SVG/1.1/DTD/svg11-tiny.dtd">
<svg xmlns="http://www.w3.org/2000/svg" xmlns:xlink="http://www.w3.org/1999/xlink" baseProfile="tiny" height="36px" version="1.1" viewBox="0 0 42 36" width="42px" x="0px" y="0px">
<path d="M31.999,3h-22C7.794,3,6.001,4.793,6.001,6.998v23.001C6.001,32.205,7.794,34,9.999,34h22  C34.205,34,36,32.205,36,29.999V6.998C36,4.793,34.205,3,31.999,3z" fill-opacity="0.2" stroke-opacity="0.2"/>
<path d="M35,29H7v1c0,1.65,1.351,3,3,3h22c1.649,0,3-1.35,3-3V29z" fill-opacity="0.5" stroke-opacity="0.5"/>
<linearGradient gradientUnits="userSpaceOnUse" id="SVGID_1_" x1="21" x2="21" y1="4" y2="59.0014">
<stop offset="0" style="stop-color:#FFFFFF"/>
<stop offset="1" style="stop-color:#B2B2C9"/>
</linearGradient>
<path d="M35,7c0-1.65-1.351-3-3-3H10C8.351,4,7,5.35,7,7v22c0,1.65,1.351,3,3,3h22c1.649,0,3-1.35,3-3V7z" fill="url(#SVGID_1_)"/>
<path d="M34.113,4.877l-0.706,0.707C33.771,5.947,33.999,6.448,33.999,7v22c0,1.1-0.899,2-2,2H10.001  c-0.552,0-1.054-0.228-1.417-0.593l-0.707,0.707C8.422,31.66,9.173,32,10,32h22c1.65,0,3-1.35,3-3V7  C35,6.173,34.66,5.422,34.113,4.877z" fill-opacity="0.25" stroke-opacity="0.25"/>
<path d="M7.887,31.123l0.706-0.707C8.229,30.053,8.001,29.552,8.001,29V7c0-1.1,0.899-2,2-2h21.998  c0.552,0,1.054,0.228,1.417,0.593l0.707-0.707C33.578,4.34,32.827,4,32,4H10C8.35,4,7,5.35,7,7v22  C7,29.827,7.34,30.578,7.887,31.123z" fill="#FFFFFF" fill-opacity="0.25" stroke-opacity="0.25"/>
<linearGradient gradientUnits="userSpaceOnUse" id="SVGID_2_" x1="21.8086" x2="21.8086" y1="17.5742" y2="54.3669">
<stop offset="0" style="stop-color:#79CD19"/>
<stop offset="1" style="stop-color:#1B6332"/>
</linearGradient>
<polygon fill="url(#SVGID_2_)" points="16.301,24.414 16.301,11.914 27.316,18.224 16.301,24.414 "/>
<polygon fill="#FFFFFF" fill-opacity="0.25" points="27.316,18.224 16.301,24.414 15.05,26.407 29.594,18.235 " stroke-opacity="0.25"/>
<polygon fill-opacity="0.2" points="16.301,11.914 27.316,18.224 29.594,18.235 15.05,9.907 15.05,26.407 16.301,24.414 " stroke-opacity="0.2"/>
<rect fill="none" height="36" width="42"/>
</svg>
