<?xml version="1.0" encoding="UTF-8"?>
<!DOCTYPE svg PUBLIC "-//W3C//DTD SVG 1.1 Tiny//EN" "http://www.w3.org/Graphics/SVG/1.1/DTD/svg11-tiny.dtd">
<svg xmlns="http://www.w3.org/2000/svg" xmlns:xlink="http://www.w3.org/1999/xlink" baseProfile="tiny" height="32px" version="1.1" viewBox="0 0 32 32" width="32px" x="0px" y="0px">
<g>
<path d="M31,10.932H1v9.939h3.662l-2.297,5.043c-0.4,0.886-0.124,2.146,1.023,2.643l1.822,0.789   c1.003,0.434,2.169-0.012,2.621-1.004c0,0,0.406-0.893,0.498-1.096c0.081,0.29,0.238,0.935,1.105,1.311l1.822,0.789   c1.003,0.434,2.169-0.012,2.621-1.004c0,0,1.066-2.342,2.121-4.658c1.054,2.316,2.121,4.658,2.121,4.658   c0.451,0.99,1.619,1.438,2.621,1.004l1.822-0.789c0.814-0.353,1.01-0.969,1.105-1.311c0.092,0.203,0.498,1.096,0.498,1.096   c0.451,0.99,1.619,1.438,2.621,1.004l1.822-0.789c1.193-0.518,1.399-1.811,1.023-2.643l-2.297-5.043H31V10.932z" fill="#FFFFFF"/>
<polygon points="6.857,20.871 4.188,26.734 6.01,27.523 9.038,20.871  "/>
<polygon points="10.234,26.734 12.057,27.523 15.084,20.871 12.904,20.871  "/>
<polygon points="19.095,20.871 16.916,20.871 19.943,27.523 21.765,26.734  "/>
<rect fill="none" height="32" width="32"/>
<g>
<polygon points="22.962,20.871 25.99,27.523 27.812,26.734 25.142,20.871   "/>
<rect height="5.963" width="26" x="3" y="12.92"/>
<rect fill="#FFFFFF" height="1.988" width="22" x="5" y="14.906"/>
</g>
</g>
</svg>
