<?xml version="1.0" encoding="UTF-8"?>
<!DOCTYPE svg PUBLIC "-//W3C//DTD SVG 1.1 Tiny//EN" "http://www.w3.org/Graphics/SVG/1.1/DTD/svg11-tiny.dtd">
<svg xmlns="http://www.w3.org/2000/svg" xmlns:xlink="http://www.w3.org/1999/xlink" baseProfile="tiny" height="32px" version="1.1" viewBox="0 0 32.001 32" width="32.001px" x="0px" y="0px">
<g>
<path d="M23.739,19.496c0.073-0.162,0.141-0.328,0.204-0.496c3.307,0,8.059,0,8.059,0L32,13c0,0-4.75,0-8.057,0   c-0.432-1.14-1.094-2.167-1.941-3.013V2h-12v7.983C9.153,10.83,8.489,11.858,8.057,13C4.751,13,0,13,0,13v6c0,0,4.751,0,8.057,0   c0.063,0.168,0.13,0.334,0.204,0.496c-2.337,2.337-5.695,5.695-5.695,5.695l4.238,4.244c0,0,3.36-3.359,5.699-5.697   c0.163,0.074,0.329,0.141,0.497,0.205C13,27.249,13,32,13,32h6c0,0,0-4.751,0-8.057c0.168-0.064,0.334-0.131,0.497-0.205   c2.339,2.339,5.694,5.697,5.694,5.697l4.242-4.244C29.433,25.191,26.078,21.833,23.739,19.496z" fill="#FFFFFF"/>
<path d="M20.001,10.888V4h-8v6.885C10.482,12.076,9.5,13.923,9.5,16c0,3.582,2.916,6.5,6.5,6.5c3.583,0,6.5-2.918,6.5-6.5   C22.5,13.925,21.519,12.079,20.001,10.888z"/>
<circle cx="16" cy="16" fill="#FFFFFF" r="4.5"/>
<path d="M9.332,21.254l-3.937,3.938l1.412,1.414l3.938-3.938C10.22,22.253,9.747,21.779,9.332,21.254z M7.5,16   c0-0.339,0.025-0.672,0.064-1H2v2h5.564C7.525,16.672,7.5,16.339,7.5,16z M15,24.436V30h2v-5.564c-0.328,0.039-0.66,0.064-1,0.064   C15.661,24.5,15.329,24.475,15,24.436z M21.254,22.668l3.937,3.938l1.414-1.414l-3.937-3.938   C22.253,21.779,21.779,22.254,21.254,22.668z M24.436,15c0.038,0.328,0.063,0.661,0.063,1s-0.025,0.672-0.063,1H30v-2H24.436z"/>
<rect fill="none" height="32" width="32"/>
</g>
</svg>
