<?xml version="1.0" encoding="UTF-8" standalone="no"?>
<!DOCTYPE svg PUBLIC "-//W3C//DTD SVG 1.1 Tiny//EN" "http://www.w3.org/Graphics/SVG/1.1/DTD/svg11-tiny.dtd">
<svg xmlns="http://www.w3.org/2000/svg" xmlns:xlink="http://www.w3.org/1999/xlink" baseProfile="tiny" height="21.998px" version="1.1" viewBox="0 0 21.998 21.998" width="21.998px" x="0px" y="0px">
<rect fill="none" height="21.998" width="21.998"/>
<path d="M21,5.649h-1.201c-0.362,0-0.665,0.257-0.733,0.6h-0.316V5.798c0-0.744-0.605-1.349-1.35-1.349h-2.682  l-2.723-2.716c0.107-0.271,0.052-0.589-0.166-0.807L11.293,0.39c-0.294-0.292-0.767-0.293-1.06,0L8.397,2.228  c-0.292,0.292-0.292,0.768,0,1.06l0.534,0.534c0.324,0.324,0.713,0.204,0.801,0.17l0.457,0.457C9.449,4.455,8.85,5.058,8.85,5.798  v3.25H1.8c-0.854,0-1.551,0.694-1.551,1.549v9.599c0,0.855,0.696,1.551,1.551,1.551h14.398c0.855,0,1.551-0.695,1.551-1.551v-8.373  c0.398,0,1-0.473,1-1.224v-0.451h0.316c0.068,0.342,0.371,0.599,0.733,0.599H21c0.413,0,0.749-0.336,0.749-0.75V6.399  C21.749,5.986,21.413,5.649,21,5.649z" fill-opacity="0.4" stroke-opacity="0.4"/>
<path d="M16.198,9.798H1.799c-0.44,0-0.8,0.36-0.8,0.8v9.601c0,0.439,0.36,0.8,0.8,0.8h14.399  c0.44,0,0.801-0.36,0.801-0.8v-9.601C16.999,10.158,16.639,9.798,16.198,9.798z M8.999,19.144c-1.988,0-3.6-1.615-3.6-3.601  c0-1.988,1.612-3.601,3.6-3.601c1.989,0,3.6,1.612,3.6,3.601C12.599,17.528,10.988,19.144,8.999,19.144z M16.198,12.489h-3.199  v-1.601h3.199V12.489z" fill="#FFFFFF"/>
<path d="M17.399,5.198h-7.2c-0.332,0-0.6,0.269-0.6,0.6v3.25h6.599c0.854,0,1.551,0.696,1.551,1.55v0.475  c0.147-0.109,0.25-0.277,0.25-0.475v-4.8C17.999,5.467,17.73,5.198,17.399,5.198z" fill="#FFFFFF"/>
<circle cx="8.999" cy="15.543" fill="#FFFFFF" r="2.8"/>
<polygon fill="#FFFFFF" points="13.656,4.448 10.978,1.776 11.298,1.456 10.764,0.92 8.928,2.757 9.462,3.292 9.777,2.977   11.249,4.448 "/>
<polygon fill="#FFFFFF" points="19.799,6.398 19.799,6.998 18.749,6.998 18.749,9.398 19.799,9.398 19.799,9.998 20.999,9.998   20.999,6.398 "/>
</svg>
