<?xml version="1.0" encoding="UTF-8" standalone="no"?>
<!DOCTYPE svg PUBLIC "-//W3C//DTD SVG 1.1 Tiny//EN" "http://www.w3.org/Graphics/SVG/1.1/DTD/svg11-tiny.dtd">
<svg xmlns="http://www.w3.org/2000/svg" xmlns:xlink="http://www.w3.org/1999/xlink" baseProfile="tiny" height="32" version="1.1" viewBox="0 0 32 32" width="32">
<g>
<path d="M2,5C0.896,5,0,5.896,0,7v19c0,1.104,0.896,2,2,2h28c1.104,0,2-0.896,2-2V7c0-1.104-0.896-2-2-2H2z" fill="#FFFFFF"/>
<path d="M2,7v19h28V7H2z M28,24H4V9h24V24z" fill="#010101"/>
<rect fill="#010101" height="2" width="4" x="22" y="11"/>
<path d="M16,11c-3.313,0-6,2.687-6,6c0,3.313,2.688,6,6,6c3.314,0,6-2.688,6-6C22,13.687,19.314,11,16,11z M16,21   c-2.205,0-4-1.793-4-4c0-2.206,1.795-4,4-4c2.207,0,4,1.794,4,4C20,19.207,18.207,21,16,21z" fill="#010101"/>
<rect fill="none" height="32" width="32"/>
</g>
</svg>
