<?xml version="1.0" encoding="UTF-8"?>
<!DOCTYPE svg PUBLIC "-//W3C//DTD SVG 1.1 Tiny//EN" "http://www.w3.org/Graphics/SVG/1.1/DTD/svg11-tiny.dtd">
<svg xmlns="http://www.w3.org/2000/svg" xmlns:xlink="http://www.w3.org/1999/xlink" baseProfile="tiny" height="22" version="1.1" viewBox="0 0 22 22" width="22">
<g>
<rect fill="none" height="22" width="22"/>
<path d="M14.13,0.946H7.998c-1.901,0.181-1.75,1.839-1.75,1.839H3.112c-0.547,0-0.802,0.451-0.802,0.8v1.863   c0.083,0.851,0.802,0.757,0.88,0.788l1.461,14.098c0.042,0.406,0.387,0.718,0.796,0.718h11.104c0.411,0,0.756-0.315,0.796-0.728   l1.327-14.088c0,0,0.953,0.141,1.012-0.788V3.571c0-0.335-0.277-0.8-0.799-0.8h-3.006C15.882,2.771,15.894,1.002,14.13,0.946z" fill-opacity="0.4" stroke-opacity="0.4"/>
<path d="M4.013,6.374l1.436,13.878h11.102l1.31-13.878H4.013z M6.891,18.598L6.002,8.396   c0-0.69,0.92-0.581,0.92-0.079l0.89,10.202C7.812,19.189,6.94,19.158,6.891,18.598z M11.389,18.558   c-0.042,0.616-0.886,0.616-0.924-0.001l0.002-10.241c0.113-0.704,0.91-0.532,0.924,0L11.389,18.558z M14.931,18.6   c-0.084,0.637-0.975,0.48-0.922-0.082l0.896-10.201c0.16-0.721,0.973-0.408,0.92,0.08L14.931,18.6z" fill="#FFFFFF"/>
<path d="M18.886,5.449V3.572h-3.801l-0.002-0.925c-0.032-0.502-0.369-0.899-0.953-0.899H7.999   c-0.584,0-0.919,0.397-0.951,0.899L7.044,3.586H3.112v1.863H18.886z" fill="#FFFFFF"/>
</g>
</svg>
