<?xml version="1.0" encoding="UTF-8" standalone="no"?>
<!DOCTYPE svg PUBLIC "-//W3C//DTD SVG 1.1 Tiny//EN" "http://www.w3.org/Graphics/SVG/1.1/DTD/svg11-tiny.dtd">
<svg xmlns="http://www.w3.org/2000/svg" xmlns:xlink="http://www.w3.org/1999/xlink" baseProfile="tiny" height="32" version="1.1" viewBox="0 0 32 32" width="32">
<g>
<g>
<g>
<path d="M5.082,2.434C5.015,2.639,4.185,5.537,4.185,8.992c0,6.278,2.783,8.634,3.159,9.013     c-3.031-1.999-4.039-1.586-4.745-1.286C1.597,17.145,1,18.129,1,19.354c0.001,3.519,1.084,6.244,3.218,8.104     c2.993,2.605,7.149,2.708,9.785,2.443c0.163,0.041,0.321,0.1,0.497,0.1h2c0.178,0,0.336-0.059,0.498-0.102     c2.639,0.265,6.798,0.162,9.792-2.448c2.133-1.86,3.213-4.589,3.21-8.106c-0.001-1.227-0.602-2.211-1.604-2.636     c-0.707-0.299-1.715-0.71-4.738,1.289c0.375-0.379,3.154-2.727,3.154-9.011c0-3.45-0.814-6.351-0.895-6.551     c-0.822-2.086-2.92-1.578-3.583-0.545c0,0-1.272,1.909-2.433,3.648C18.587,3.782,17.1,1.8,17.1,1.8     c-0.638-0.854-2.227-1.252-3.2,0c0,0-1.486,1.982-2.804,3.739C9.937,3.8,8.664,1.891,8.664,1.891     C7.94,0.703,5.71,0.504,5.082,2.434z M9.732,19.775c0.829,0.414,1.77,0.689,2.768,0.892c0,0.501,0,0.754,0,1.458     C11.468,21.206,10.55,20.43,9.732,19.775z M21.271,19.77c-0.818,0.654-1.737,1.436-2.771,2.358c0-0.707,0-0.962,0-1.464     C19.5,20.462,20.441,20.186,21.271,19.77z" fill="#FFFFFF"/>
</g>
</g>
<path d="M16.5,26.715v-7.754C28.482,18.156,24,3,24,3l-4,6l-4.5-6L11,9L7,3c0,0-4.484,15.172,7.5,15.962v7.742   C11.557,23.866,2.999,15.909,3,19.352c0.004,9.276,8.558,8.892,11.5,8.484V28h2v-0.164c2.932,0.404,11.506,0.796,11.5-8.492   C27.997,15.893,19.43,23.882,16.5,26.715z" fill="#010101"/>
<rect fill="none" height="32" width="32"/>
</g>
</svg>
