<?xml version="1.0" encoding="UTF-8"?>
<!DOCTYPE svg PUBLIC "-//W3C//DTD SVG 1.1 Tiny//EN" "http://www.w3.org/Graphics/SVG/1.1/DTD/svg11-tiny.dtd">
<svg baseProfile="tiny" height="20px" version="1.1" viewBox="0 0 20 20" width="20px" x="0px" xmlns="http://www.w3.org/2000/svg" xmlns:xlink="http://www.w3.org/1999/xlink" y="0px">
<path d="M0,0v20h20V0H0z M18.863,18.06l-3.472-3.497l-0.235,1.359l2.904,2.942H1.939L4.844,16l-0.28-1.368L1.137,18.06V1.94  l4.235,4.234l1.03-0.576L1.939,1.136h16.121l-4.383,4.408l1.01,0.639l4.175-4.242V18.06z"/>
<g>
<path d="M11.425,5.748l-0.081,1.154c2.507,0.464,4.294,2.181,2.528,3.966l-0.542,4.37c-0.377,2.664-6.201,2.71-6.652,0l-0.58-4.426   C4.531,9.197,5.97,7.362,8.73,6.884L8.677,5.711c-3.53,0.614-5.706,3.318-3.682,5.68l0.5,3.909   c0.516,4.113,8.586,4.047,9.023-0.062l0.503-3.898C17.06,8.91,14.677,6.354,11.425,5.748z"/>
<path d="M14.818,2.107c-1.329-1.241-4.631,0.491-4.836,2.25C9.677,2.353,6.307,1.084,5.156,2.162   C4.842,3.87,7.822,5.661,9.48,5.091v2.833C7.9,8.049,6.593,8.728,6.065,9.635c1.331,2.316,6.56,2.283,7.869,0   c-0.518-0.892-1.787-1.563-3.325-1.706V5.07C12.186,5.501,15.141,3.859,14.818,2.107z"/>
</g>
</svg>
