<?xml version="1.0" encoding="UTF-8" standalone="no"?>
<!DOCTYPE svg PUBLIC "-//W3C//DTD SVG 1.1 Tiny//EN" "http://www.w3.org/Graphics/SVG/1.1/DTD/svg11-tiny.dtd">
<svg width="34px" height="34px" viewBox="0 0 34 34">
<path d="M16.818,1.503c-6.578,0-11.172,4.092-11.172,9.949c0,2.86,1.747,6.119,3.285,8.996 c0.547,1.022,1.145,2.096,1.824,3.077v8.866h12.201v-8.908c0.385-0.611,1.044-1.661,1.479-2.361c1.937-3.125,3.915-6.719,3.915-9.67 C28.351,5.688,23.501,1.503,16.818,1.503z" fill="#FFFFFF"/>
<path d="M16.818,3.48c-5.175,0-9.188,3.048-9.188,7.972c0,2.336,1.574,5.304,3.053,8.066c0.662,1.238,1.332,2.422,2.076,3.396 c-0.009,0-0.018,0-0.02,0v7.5h8.234v-7.5c0-0.005,1.135-1.799,1.775-2.83c1.766-2.852,3.619-6.17,3.619-8.632 C26.368,6.528,21.991,3.48,16.818,3.48z M14.388,28.357v-4.072h4.961v4.072H14.388z M21.228,19.159c0,0-1.281,2.218-1.879,2.971 v0.124h-4.961V22.13l-2.103-3.435c0,0-2.707-5.136-2.707-7.042c0-4.284,3.644-6.203,7.254-6.203c3.659,0,7.597,1.941,7.597,6.203 C24.429,13.655,21.228,19.159,21.228,19.159z"/>
<path d="M29.131,34l4.794-4.769L4.997,0.352l-4.793,4.77L29.131,34z" fill="#FFFFFF"/>
<polygon points="29.136,31.019 3.196,5.123 4.992,3.335 30.932,29.229 "/>
<rect fill="none" height="34" width="34"/>
</svg>