<?xml version="1.0" encoding="UTF-8" standalone="no"?>
<!-- Created with Inkscape (http://www.inkscape.org/) -->
<svg
   xmlns:svg="http://www.w3.org/2000/svg"
   xmlns="http://www.w3.org/2000/svg"
   version="1.0"
   width="32"
   height="32"
   id="svg2556">
  <defs
     id="defs2559" />
  <path
     d="M 5.861472,29.084415 C 5.861472,28.251082 4.972583,27.584415 3.861472,27.584415 C 1.4548497,27.584415 1.3569057,26.749797 3.418176,23.806921 C 4.504332,22.256216 4.60862,21.584415 3.763188,21.584415 C 3.033839,21.584415 3.309821,20.746476 4.456484,19.479427 C 5.504227,18.321684 6.248972,17.196684 6.111472,16.979427 C 5.521877,16.047839 5.935397,14.584415 6.78823,14.584415 C 8.065082,14.584415 10.96517,20.607611 10.24746,21.768891 C 9.927409,22.286744 10.471859,23.601404 11.457349,24.690358 C 13.187772,26.602455 13.17637,26.689306 11.124485,27.225886 C 9.95592,27.531473 8.757816,28.412155 8.462031,29.182957 C 7.745766,31.049515 5.861472,30.978115 5.861472,29.084415 z M 23.861471,29.084415 C 23.861471,28.251082 22.972582,27.584415 21.861471,27.584415 C 19.454849,27.584415 19.356905,26.749797 21.418175,23.806921 C 22.504331,22.256216 22.608619,21.584415 21.763187,21.584415 C 21.033838,21.584415 21.30982,20.746476 22.456483,19.479427 C 23.504227,18.321684 24.248971,17.196684 24.111471,16.979427 C 23.521876,16.047839 23.935396,14.584415 24.788229,14.584415 C 26.065081,14.584415 28.965169,20.607611 28.247459,21.768891 C 27.927408,22.286744 28.471858,23.601404 29.457348,24.690358 C 31.187772,26.602455 31.17637,26.689306 29.124484,27.225886 C 27.955919,27.531473 26.757815,28.412155 26.462031,29.182957 C 25.745765,31.049515 23.861471,30.978115 23.861471,29.084415 z M 14.861471,16.084415 C 14.861471,15.251082 13.972582,14.584415 12.861471,14.584415 C 10.45485,14.584415 10.356906,13.749797 12.418175,10.806921 C 13.504331,9.256216 13.608619,8.584416 12.763187,8.584416 C 12.033838,8.584416 12.30982,7.7464763 13.456483,6.4794279 C 14.504227,5.3216848 15.248971,4.1966848 15.111471,3.9794279 C 14.521876,3.0478394 14.935396,1.5844156 15.788229,1.5844156 C 17.065081,1.5844156 19.965169,7.6076113 19.247459,8.768892 C 18.927408,9.286744 19.471858,10.601404 20.457348,11.690358 C 22.187772,13.602455 22.17637,13.689306 20.124484,14.225886 C 18.955919,14.531473 17.757815,15.412155 17.462031,16.182957 C 16.745765,18.049515 14.861471,17.978115 14.861471,16.084415 z"
     id="path2774"
     style="fill:#000000" />
</svg>
