<?xml version="1.0" encoding="UTF-8" standalone="no"?>
<!-- Created with Inkscape (http://www.inkscape.org/) -->
<svg
   xmlns:dc="http://purl.org/dc/elements/1.1/"
   xmlns:cc="http://creativecommons.org/ns#"
   xmlns:rdf="http://www.w3.org/1999/02/22-rdf-syntax-ns#"
   xmlns:svg="http://www.w3.org/2000/svg"
   xmlns="http://www.w3.org/2000/svg"
   xmlns:sodipodi="http://sodipodi.sourceforge.net/DTD/sodipodi-0.dtd"
   xmlns:inkscape="http://www.inkscape.org/namespaces/inkscape"
   id="svg2709"
   sodipodi:version="0.32"
   inkscape:version="0.46"
   width="32"
   height="32"
   version="1.0"
   sodipodi:docname="zoomin.svg"
   inkscape:output_extension="org.inkscape.output.svg.inkscape">
  <metadata
     id="metadata2714">
    <rdf:RDF>
      <cc:Work
         rdf:about="">
        <dc:format>image/svg+xml</dc:format>
        <dc:type
           rdf:resource="http://purl.org/dc/dcmitype/StillImage" />
      </cc:Work>
    </rdf:RDF>
  </metadata>
  <defs
     id="defs2712">
    <inkscape:perspective
       sodipodi:type="inkscape:persp3d"
       inkscape:vp_x="0 : 526.18109 : 1"
       inkscape:vp_y="0 : 1000 : 0"
       inkscape:vp_z="744.09448 : 526.18109 : 1"
       inkscape:persp3d-origin="372.04724 : 350.78739 : 1"
       id="perspective2716" />
  </defs>
  <sodipodi:namedview
     inkscape:window-height="1106"
     inkscape:window-width="1920"
     inkscape:pageshadow="2"
     inkscape:pageopacity="0.0"
     guidetolerance="10.0"
     gridtolerance="10.0"
     objecttolerance="10.0"
     borderopacity="1.0"
     bordercolor="#666666"
     pagecolor="#ffffff"
     id="base"
     showgrid="false"
     inkscape:zoom="14.4375"
     inkscape:cx="16"
     inkscape:cy="16"
     inkscape:window-x="-4"
     inkscape:window-y="-4"
     inkscape:current-layer="svg2709" />
  <path
     style="fill:#000000"
     d="M 14.069264,27.253247 C 14.069264,25.070938 13.631996,24.753247 10.628281,24.753247 C 5.9722725,24.753247 5.5826425,23.593643 9.1048215,20.219181 C 12.406282,17.056181 12.944462,14.753247 10.382173,14.753247 C 9.0654895,14.753247 9.3399315,14.065692 11.632173,11.621645 C 13.703368,9.4132835 14.179187,8.3496795 13.246137,8.0139355 C 12.272283,7.6635095 12.517669,6.9048443 14.175718,5.1399313 L 16.428426,2.7420338 L 18.759547,4.9320088 C 20.474491,6.543115 20.762074,7.3250663 19.847531,7.8902855 C 18.944666,8.4482865 19.403529,9.4927055 21.523919,11.705917 C 23.796368,14.077842 24.069523,14.753247 22.756355,14.753247 C 20.194066,14.753247 20.732246,17.056181 24.033706,20.219181 C 27.555886,23.593643 27.166255,24.753247 22.510247,24.753247 C 19.506532,24.753247 19.069264,25.070938 19.069264,27.253247 C 19.069264,29.253247 18.569264,29.753247 16.569264,29.753247 C 14.569264,29.753247 14.069264,29.253247 14.069264,27.253247 z"
     id="path2742" />
</svg>
