<?xml version="1.0" encoding="utf-8"?>
<!-- Generator: Adobe Illustrator 12.0.1, SVG Export Plug-In . SVG Version: 6.00 Build 51448)  -->
<!DOCTYPE svg PUBLIC "-//W3C//DTD SVG 1.1//EN" "http://www.w3.org/Graphics/SVG/1.1/DTD/svg11.dtd" [
	<!ENTITY ns_svg "http://www.w3.org/2000/svg">
	<!ENTITY ns_xlink "http://www.w3.org/1999/xlink">
]>
<svg  version="1.1" id="Layer_1" xmlns="&ns_svg;" xmlns:xlink="&ns_xlink;" width="24.543" height="24.779"
	 viewBox="0 0 24.543 24.779" overflow="visible" enable-background="new 0 0 24.543 24.779" xml:space="preserve">
<g>
	<path d="M0,1.104C0,0.491,0.491,0,1.094,0h22.362c0.604,0,1.088,0.491,1.088,1.104v22.577c0,0.603-0.484,1.099-1.088,1.099H1.094
		C0.491,24.779,0,24.283,0,23.681V1.104z"/>
	<path fill="#FFFFFF" stroke="#FFFFFF" stroke-width="0.5128" stroke-linecap="round" stroke-linejoin="round" d="M12.274,20.46
		c-4.479,0-8.122-3.566-8.122-7.957c0-0.875,0.18-1.708,0.447-2.496L3.055,8.461c-0.563,1.241-0.892,2.602-0.892,4.042
		c0,5.49,4.536,9.949,10.111,9.949V20.46z"/>
	<path fill="#FFFFFF" stroke="#FFFFFF" stroke-width="0.5128" stroke-linecap="round" stroke-linejoin="round" d="M22.381,12.503
		c0-5.479-4.535-9.939-10.107-9.939c-1.154,0-2.247,0.229-3.283,0.582l1.586,1.584c0.551-0.114,1.116-0.18,1.697-0.18
		c4.479,0,8.118,3.565,8.118,7.953H22.381z"/>
	<g>
		<path fill="#FFFFFF" d="M2.874,5.51l6.506,6.442c0,0,1.404,1.342,2.805-0.056c1.397-1.398,0.011-2.761,0.011-2.761L5.688,2.691
			c0,0-1.497-1.4-2.835-0.062C1.517,3.97,2.874,5.51,2.874,5.51z"/>
	</g>
	<path fill="#FFFFFF" stroke="#FFFFFF" stroke-width="0.5128" stroke-linejoin="round" d="M13.779,22.739v-1.617l3.204-3.771
		c0.504-0.588,0.752-1.24,0.752-1.966c0-0.38-0.123-0.703-0.377-0.966c-0.249-0.256-0.581-0.393-0.996-0.393
		c-0.426,0-0.844,0.065-1.252,0.188c-0.414,0.132-0.766,0.283-1.066,0.453V13.23c0.27-0.149,0.605-0.271,1.021-0.379
		c0.416-0.104,0.87-0.154,1.371-0.154c0.987,0,1.763,0.234,2.323,0.71c0.564,0.475,0.844,1.127,0.844,1.948
		c0,1.168-0.506,2.289-1.523,3.369l-2.504,2.643h4.137v1.371L13.779,22.739L13.779,22.739z"/>
</g>
</svg>
