<?xml version="1.0" encoding="utf-8"?>
<!-- Generator: Adobe Illustrator 13.0.0, SVG Export Plug-In  -->
<!DOCTYPE svg PUBLIC "-//W3C//DTD SVG 1.1 Tiny//EN" "http://www.w3.org/Graphics/SVG/1.1/DTD/svg11-tiny.dtd" [
	<!ENTITY ns_flows "http://ns.adobe.com/Flows/1.0/">
]>
<svg version="1.1" baseProfile="tiny"
	 xmlns="http://www.w3.org/2000/svg" xmlns:xlink="http://www.w3.org/1999/xlink" xmlns:a="http://ns.adobe.com/AdobeSVGViewerExtensions/3.0/"
	 x="0px" y="0px" width="22px" height="22px" viewBox="0 0 22 22" xml:space="preserve">
<defs>
</defs>
<rect fill="none" width="22" height="22"/>
<path fill="#FFFFFF" d="M7.281,13.595l5.62,2.881c0,2.045,1.602,2.966,2.869,2.966c1.9,0,2.838-1.325,2.953-2.583
	c0.131-1.435-1.041-3.107-2.977-3.085c-1.256,0.016-1.865,0.753-1.865,0.753l-5.452-2.869v-0.646L14,8.179
	c0.215,0.215,0.668,0.666,1.938,0.645c1.434-0.022,2.785-1.29,2.785-2.761c0-1.4-1.041-2.929-2.799-2.941
	c-1.779-0.011-3.049,1.148-3.012,3.12L7.389,9.075C6.995,8.747,6.582,8.447,5.434,8.447c-1.938,0-2.991,1.655-2.869,3.085
	c0.143,1.685,1.583,2.553,2.541,2.577C6.647,14.146,7.281,13.595,7.281,13.595z"/>
<path fill-opacity="0.2" d="M13.822,9.11l-4.019,2.225l3.802,2.188c0.482-0.298,1.225-0.73,2.545-0.609
	c2.453,0.227,3.588,2.416,3.373,4.113c-0.275,2.17-2.104,3.539-4.375,3.131c-2.609-0.467-2.893-3.035-2.893-3.035l-4.927-2.678
	c0,0-0.861,0.442-2.056,0.406c-2.319-0.072-3.516-2.017-3.491-3.754c0.023-1.675,1.291-3.492,3.443-3.539
	c1.458-0.033,2.08,0.478,2.176,0.549L12.1,5.596c0.072-1.47,1.506-3.335,3.621-3.335c2.477,0,3.852,1.817,3.852,3.718
	c0,2.009-1.473,3.659-3.588,3.659C14.873,9.638,13.822,9.11,13.822,9.11z M7.257,13.595l5.62,2.881c0,2.045,1.602,2.966,2.869,2.966
	c1.9,0,2.836-1.325,2.953-2.583c0.131-1.435-1.041-3.107-2.979-3.085c-1.256,0.016-1.863,0.753-1.863,0.753l-5.453-2.869v-0.646
	l5.572-2.833c0.215,0.215,0.668,0.666,1.938,0.645c1.434-0.022,2.785-1.29,2.785-2.761c0-1.4-1.041-2.929-2.797-2.941
	c-1.781-0.011-3.051,1.148-3.014,3.12L7.365,9.075C6.972,8.747,6.558,8.447,5.41,8.447c-1.937,0-2.991,1.655-2.869,3.085
	c0.144,1.685,1.584,2.553,2.541,2.577C6.623,14.146,7.257,13.595,7.257,13.595z"/>
</svg>
