<?xml version="1.0" encoding="utf-8"?>
<!-- Generator: Adobe Illustrator 13.0.0, SVG Export Plug-In  -->
<!DOCTYPE svg PUBLIC "-//W3C//DTD SVG 1.1 Tiny//EN" "http://www.w3.org/Graphics/SVG/1.1/DTD/svg11-tiny.dtd" [
	<!ENTITY ns_flows "http://ns.adobe.com/Flows/1.0/">
]>
<svg version="1.1" baseProfile="tiny"
	 xmlns="http://www.w3.org/2000/svg" xmlns:xlink="http://www.w3.org/1999/xlink" xmlns:a="http://ns.adobe.com/AdobeSVGViewerExtensions/3.0/"
	 x="0px" y="0px" width="22px" height="22px" viewBox="0 0 22 22" xml:space="preserve">
<defs>
</defs>
<rect fill="none" width="22" height="22"/>
<path fill-opacity="0.4" d="M13.78,9.069l-4.018,2.224l3.801,2.188c0.482-0.298,1.226-0.73,2.546-0.609
	c2.452,0.227,3.588,2.416,3.372,4.113c-0.274,2.17-2.104,3.539-4.374,3.131c-2.61-0.467-2.894-3.035-2.894-3.035l-4.926-2.678
	c0,0-0.861,0.442-2.056,0.406c-2.319-0.072-3.516-2.017-3.491-3.754C1.764,9.38,3.032,7.562,5.184,7.515
	c1.458-0.033,2.08,0.478,2.176,0.55l4.698-2.511c0.072-1.47,1.506-3.335,3.622-3.335c2.476,0,3.851,1.817,3.851,3.718
	c0,2.009-1.472,3.659-3.587,3.659C14.832,9.595,13.78,9.069,13.78,9.069z M7.216,13.553l5.619,2.881c0,2.045,1.603,2.966,2.87,2.966
	c1.9,0,2.836-1.325,2.952-2.583c0.132-1.435-1.04-3.107-2.978-3.085c-1.256,0.016-1.864,0.753-1.864,0.753l-5.452-2.869V10.97
	l5.571-2.833c0.216,0.215,0.668,0.666,1.938,0.645c1.434-0.023,2.785-1.291,2.785-2.761c0-1.4-1.04-2.929-2.797-2.941
	c-1.781-0.011-3.05,1.148-3.013,3.121L7.324,9.033C6.93,8.705,6.516,8.405,5.369,8.405c-1.937,0-2.991,1.655-2.869,3.085
	c0.144,1.685,1.584,2.553,2.541,2.577C6.582,14.104,7.216,13.553,7.216,13.553z"/>
<path fill="#FFFFFF" d="M7.239,13.553l5.62,2.881c0,2.045,1.602,2.966,2.869,2.966c1.9,0,2.837-1.325,2.952-2.583
	c0.132-1.435-1.04-3.107-2.977-3.085c-1.255,0.016-1.865,0.753-1.865,0.753l-5.452-2.869V10.97l5.571-2.833
	c0.216,0.215,0.669,0.666,1.938,0.645c1.434-0.023,2.785-1.291,2.785-2.761c0-1.4-1.04-2.929-2.798-2.941
	c-1.78-0.011-3.049,1.148-3.013,3.121L7.347,9.033C6.954,8.705,6.54,8.405,5.392,8.405c-1.938,0-2.991,1.655-2.869,3.085
	c0.143,1.685,1.583,2.553,2.541,2.577C6.605,14.104,7.239,13.553,7.239,13.553z"/>
</svg>
