<?xml version="1.0" encoding="UTF-8" standalone="no"?>
<svg
   xmlns:svg="http://www.w3.org/2000/svg"
   xmlns="http://www.w3.org/2000/svg"
   version="1.0"
   width="24.546"
   height="24.780001"
   id="svg2">
  <defs
     id="defs4" />
  <path
     d="M 0,1.103 C 0,0.49 0.492,0 1.095,0 L 23.456,0 C 24.06,0 24.546,0.49 24.546,1.103 L 24.546,23.679 C 24.546,24.283 24.06,24.78 23.456,24.78 L 1.095,24.78 C 0.492,24.779 0,24.283 0,23.679 L 0,1.103 z "
     id="path2161" />
  <path
     d="M 17.386281,11.362656 C 19.980014,11.847037 21.276887,12.797556 21.276906,14.214218 C 21.276887,15.40172 20.457878,16.343126 18.819875,17.038437 C 17.181839,17.733749 14.969602,18.081405 12.183156,18.081406 C 9.5841908,18.081405 7.4487763,17.814478 5.7769063,17.280624 C 4.1050296,16.746771 3.269093,16.065782 3.2690938,15.237656 C 3.269093,14.425159 4.190967,13.826201 6.0347188,13.440781 C 4.237842,12.737661 3.3394054,11.789745 3.3394063,10.597031 C 3.3394054,9.362664 4.094613,8.4043316 5.6050313,7.7220306 C 7.1154433,7.0397497 9.2352328,6.6986042 11.964406,6.6985931 C 14.219603,6.6986042 16.124549,6.965531 17.67925,7.4993744 C 19.233921,8.0332382 20.011264,8.6855813 20.011281,9.4564056 C 20.011264,10.201205 19.136265,10.836621 17.386281,11.362656 L 17.386281,11.362656 z M 15.425344,10.917343 C 15.675331,10.485059 15.80033,10.136101 15.800344,9.8704681 C 15.80033,9.3444349 15.463091,8.9772477 14.788625,8.7689056 C 14.114134,8.5605815 12.927937,8.4564149 11.230031,8.4564056 C 8.9800248,8.4564149 7.8550259,8.8418312 7.8550313,9.6126556 C 7.8550259,10.175163 8.6597126,10.503288 10.269094,10.597031 L 11.831594,10.690781 L 14.073781,10.776718 L 15.425344,10.917343 z M 7.4487813,13.964218 C 7.2925264,14.266305 7.2144015,14.508492 7.2144063,14.690781 C 7.2144015,15.831408 8.8133583,16.401719 12.011281,16.401718 C 14.771686,16.401719 16.151893,16.029324 16.151906,15.284531 C 16.151893,14.555367 14.151895,14.190784 10.151906,14.190781 L 7.4487813,13.964218 z "
     style="fill:#ffffff;fill-opacity:1;stroke:none;stroke-width:1px;stroke-linecap:butt;stroke-linejoin:miter;stroke-opacity:1;"
     id="text4145" />
</svg>
