<?xml version="1.0" encoding="UTF-8" standalone="no"?>
<!-- Created with Inkscape (http://www.inkscape.org/) -->
<svg
   xmlns:svg="http://www.w3.org/2000/svg"
   xmlns="http://www.w3.org/2000/svg"
   version="1.0"
   width="24.546"
   height="24.780001"
   id="svg2">
  <defs
     id="defs4" />
  <path
     d="M 0,1.103 C 0,0.49 0.492,0 1.095,0 L 23.456,0 C 24.06,0 24.546,0.49 24.546,1.103 L 24.546,23.679 C 24.546,24.283 24.06,24.78 23.456,24.78 L 1.095,24.78 C 0.492,24.779 0,24.283 0,23.679 L 0,1.103 z "
     id="path2161" />
  <path
     d="M 5.9839375,6.8821869 L 19.773,6.8821869 L 18.023,9.0931244 L 8.4683125,9.0931244 L 7.9683125,10.819687 C 9.4943479,10.179069 11.127159,9.8587571 12.86675,9.8587494 C 15.163613,9.8587571 17.064653,10.246778 18.569875,11.022812 C 20.075067,11.798859 20.82767,12.780629 20.827688,13.968124 C 20.82767,15.05146 19.948765,15.977241 18.190969,16.745468 C 16.433143,17.513697 14.312051,17.897812 11.827688,17.897812 C 9.5464312,17.897812 7.6245581,17.599635 6.0620625,17.003281 C 4.4995612,16.406928 3.718312,15.67646 3.7183125,14.811874 C 3.718312,14.311878 4.0203951,13.888701 4.6245625,13.542343 C 5.2287272,13.195993 5.9657056,13.022816 6.8355,13.022812 C 7.2157044,13.022816 7.7599747,13.082712 8.4683125,13.202499 C 8.3068491,13.577503 8.22612,13.887399 8.226125,14.132187 C 8.22612,15.324897 9.3615355,15.921251 11.632375,15.921249 C 13.793823,15.921251 14.874551,15.20771 14.874563,13.780624 C 14.874551,12.395213 13.819864,11.702505 11.7105,11.702499 C 10.299035,11.702505 9.05164,12.033234 7.9683125,12.694687 L 5.007375,11.593124 L 5.9839375,6.8821869 z "
     style="fill:#ffffff;fill-opacity:1;stroke:none;stroke-width:1px;stroke-linecap:butt;stroke-linejoin:miter;stroke-opacity:1;"
     id="text3164" />
</svg>
