<?xml version="1.0" encoding="UTF-8" standalone="no"?>
<svg
   xmlns:svg="http://www.w3.org/2000/svg"
   xmlns="http://www.w3.org/2000/svg"
   version="1.0"
   width="24.546"
   height="24.780001"
   id="svg2">
  <defs
     id="defs4" />
  <path
     d="M 0,1.103 C 0,0.49 0.492,0 1.095,0 L 23.456,0 C 24.06,0 24.546,0.49 24.546,1.103 L 24.546,23.679 C 24.546,24.283 24.06,24.78 23.456,24.78 L 1.095,24.78 C 0.492,24.779 0,24.283 0,23.679 L 0,1.103 z "
     id="path2161" />
  <path
     d="M 17.648,7.0579681 L 17.648,12.940781 L 21.61675,12.940781 L 20.296438,14.698593 L 17.648,14.698593 L 17.648,15.229843 L 21.913625,17.722031 L 7.5151875,17.722031 L 12.312063,15.229843 L 12.312063,14.698593 L 2.632375,14.698593 L 2.632375,12.690781 L 12.67925,7.0579681 L 17.648,7.0579681 z M 12.312063,12.940781 L 12.312063,9.5970306 L 6.5776875,12.940781 L 12.312063,12.940781 z "
     style="fill:#ffffff;fill-opacity:1;stroke:none;stroke-width:1px;stroke-linecap:butt;stroke-linejoin:miter;stroke-opacity:1;"
     id="text2165" />
</svg>
