<?xml version="1.0" encoding="UTF-8" standalone="no"?>
<svg
   xmlns:svg="http://www.w3.org/2000/svg"
   xmlns="http://www.w3.org/2000/svg"
   version="1.0"
   width="24.546"
   height="24.780001"
   id="svg2">
  <defs
     id="defs4" />
  <path
     d="M 0,1.103 C 0,0.49 0.492,0 1.095,0 L 23.456,0 C 24.06,0 24.546,0.49 24.546,1.103 L 24.546,23.679 C 24.546,24.283 24.06,24.78 23.456,24.78 L 1.095,24.78 C 0.492,24.779 0,24.283 0,23.679 L 0,1.103 z "
     id="path2161" />
  <path
     d="M 15.390188,12.608749 C 14.181843,13.447295 12.608928,13.866566 10.671438,13.866562 C 8.5620567,13.866566 6.7873188,13.530629 5.3472188,12.858749 C 3.9071134,12.18688 3.187062,11.356152 3.1870625,10.366562 C 3.187062,9.3509453 4.0347174,8.4850607 5.7300313,7.7689056 C 7.425339,7.0527705 9.4787224,6.6946979 11.890188,6.6946869 C 14.608926,6.6946979 16.866736,7.1986037 18.663625,8.2064056 C 20.460482,9.2142266 21.358919,10.481152 21.358938,12.007187 C 21.358919,13.710316 20.388868,15.149117 18.448781,16.323593 C 16.508663,17.498073 14.132364,18.085312 11.319875,18.085312 C 9.5438265,18.085312 7.9539843,17.835312 6.5503438,17.335312 C 5.1466955,16.835313 4.4448733,16.267605 4.444875,15.632187 C 4.4448733,14.81969 5.392789,14.41344 7.288625,14.413437 C 8.3094527,14.41344 9.1610144,14.501982 9.8433125,14.679062 C 9.8068471,14.876981 9.7886179,15.041044 9.788625,15.171249 C 9.7886179,15.942084 10.520388,16.327501 11.983938,16.327499 C 13.233927,16.327501 14.114134,16.048855 14.624563,15.491562 C 15.134967,14.934273 15.390175,13.973336 15.390188,12.608749 L 15.390188,12.608749 z M 12.171438,8.2649994 C 11.286012,8.2650088 10.569867,8.4407899 10.023,8.7923431 C 9.4761182,9.1439142 9.202681,9.6087575 9.2026875,10.186874 C 9.202681,10.733756 9.4657016,11.176464 9.99175,11.514999 C 10.517784,11.853547 11.207887,12.022818 12.062063,12.022812 C 12.973511,12.022818 13.737833,11.835318 14.355031,11.460312 C 14.972206,11.085319 15.2808,10.621777 15.280813,10.069687 C 15.2808,9.5332367 14.994342,9.0983413 14.421438,8.7649994 C 13.84851,8.4316753 13.09851,8.2650088 12.171438,8.2649994 L 12.171438,8.2649994 z "
     style="fill:#ffffff;fill-opacity:1;stroke:none;stroke-width:1px;stroke-linecap:butt;stroke-linejoin:miter;stroke-opacity:1;"
     id="text4149" />
</svg>
