<?xml version="1.0" encoding="UTF-8" standalone="no"?>
<svg
   xmlns:svg="http://www.w3.org/2000/svg"
   xmlns="http://www.w3.org/2000/svg"
   version="1.0"
   width="24.546"
   height="24.780001"
   id="svg2">
  <defs
     id="defs4" />
  <path
     d="M 0,1.103 C 0,0.49 0.492,0 1.095,0 L 23.456,0 C 24.06,0 24.546,0.49 24.546,1.103 L 24.546,23.679 C 24.546,24.283 24.06,24.78 23.456,24.78 L 1.095,24.78 C 0.492,24.779 0,24.283 0,23.679 L 0,1.103 z "
     id="path2161" />
  <path
     d="M 20.636281,12.757158 L 20.636281,17.889971 L 3.644093,17.889971 C 4.8211747,16.051431 6.8654435,14.554037 9.7769055,13.397783 L 11.565968,12.686846 C 13.664916,11.853518 14.714394,10.983728 14.714406,10.077471 C 14.714394,9.0722713 13.753457,8.5696676 11.831593,8.5696583 C 9.7951281,8.5696676 8.7768999,9.2675836 8.7769055,10.663408 C 8.7768999,11.194665 9.0581496,11.712894 9.6206555,12.218096 C 9.1466912,12.343101 8.6805458,12.405601 8.222218,12.405596 C 6.9513809,12.405601 5.9292465,12.206383 5.1558118,11.80794 C 4.382373,11.409509 3.9956547,10.882165 3.9956555,10.225908 C 3.9956547,9.2832086 4.809456,8.4915427 6.4370618,7.8509083 C 8.064661,7.210294 10.076378,6.8899818 12.472218,6.8899708 C 14.857623,6.8899818 16.858923,7.210294 18.476124,7.8509083 C 20.093295,8.4915427 20.901888,9.2858127 20.901906,10.233721 C 20.901888,10.806645 20.58418,11.288415 19.948781,11.679033 C 19.313348,12.069664 18.04512,12.564455 16.144093,13.163408 L 13.956593,13.850908 C 11.737834,14.554037 9.9227321,15.197265 8.5112805,15.780596 L 17.159718,15.780596 L 20.636281,12.757158 z "
     style="fill:#ffffff;fill-opacity:1;stroke:none;stroke-width:1px;stroke-linecap:butt;stroke-linejoin:miter;stroke-opacity:1;"
     id="text3209" />
</svg>
