<?xml version="1.0" encoding="UTF-8" standalone="no"?>
<svg
   xmlns:svg="http://www.w3.org/2000/svg"
   xmlns="http://www.w3.org/2000/svg"
   version="1.0"
   width="24.546"
   height="24.780001"
   id="svg2">
  <defs
     id="defs4" />
  <path
     d="M 0,1.103 C 0,0.49 0.492,0 1.095,0 L 23.456,0 C 24.06,0 24.546,0.49 24.546,1.103 L 24.546,23.679 C 24.546,24.283 24.06,24.78 23.456,24.78 L 1.095,24.78 C 0.492,24.779 0,24.283 0,23.679 L 0,1.103 z "
     id="path2161" />
  <path
     d="M 4.7690935,7.0579681 L 19.776906,7.0579681 L 19.776906,7.9720306 L 19.526906,8.1985931 C 16.610227,10.834017 15.151895,13.401722 15.151906,15.901718 C 15.151895,16.323595 15.245645,16.930365 15.433156,17.722031 L 9.276906,17.722031 C 9.4123173,15.175158 11.529503,12.357453 15.628469,9.2689056 L 8.8472185,9.2689056 L 4.7690935,12.409531 L 4.7690935,7.0579681 z "
     style="fill:#ffffff;fill-opacity:1;stroke:none;stroke-width:1px;stroke-linecap:butt;stroke-linejoin:miter;stroke-opacity:1;"
     id="text4141" />
</svg>
