<?xml version="1.0" encoding="UTF-8" standalone="no"?>
<!-- Created with Inkscape (http://www.inkscape.org/) -->
<svg
   xmlns:svg="http://www.w3.org/2000/svg"
   xmlns="http://www.w3.org/2000/svg"
   version="1.0"
   width="24.546"
   height="24.780001"
   id="svg2">
  <defs
     id="defs4" />
  <path
     d="M 0,1.103 C 0,0.49 0.492,0 1.095,0 L 23.456,0 C 24.06,0 24.546,0.49 24.546,1.103 L 24.546,23.679 C 24.546,24.283 24.06,24.78 23.456,24.78 L 1.095,24.78 C 0.492,24.779 0,24.283 0,23.679 L 0,1.103 z "
     id="path2161" />
  <path
     d="M 9.1558125,12.171249 C 10.353722,11.332714 11.924033,10.913444 13.86675,10.913437 C 15.98132,10.913444 17.758662,11.249381 19.198781,11.921249 C 20.638868,12.59313 21.358919,13.423858 21.358938,14.413437 C 21.358919,15.429064 20.511264,16.294949 18.815969,17.011093 C 17.120642,17.727239 15.067259,18.085312 12.655813,18.085312 C 9.9370554,18.085312 7.6792451,17.581406 5.882375,16.573593 C 4.0854987,15.565783 3.1870621,14.298857 3.1870625,12.772812 C 3.1870621,11.069694 4.1571132,9.6308929 6.0972188,8.4564056 C 8.0373177,7.2819369 10.411013,6.6946979 13.218313,6.6946869 C 14.994342,6.6946979 16.584184,6.9446977 17.987844,7.4446869 C 19.391473,7.9446967 20.093295,8.5124044 20.093313,9.1478119 C 20.093295,9.9603197 19.14538,10.366569 17.249563,10.366562 C 16.228716,10.366569 15.379758,10.278028 14.702688,10.100937 C 14.739134,9.9030281 14.757363,9.7389657 14.757375,9.6087494 C 14.757363,8.837925 14.022989,8.4525087 12.55425,8.4524994 C 11.30945,8.4525087 10.431847,8.7311542 9.9214375,9.2884369 C 9.4110142,9.8457364 9.1558062,10.806673 9.1558125,12.171249 L 9.1558125,12.171249 z M 12.476125,12.593124 C 11.569866,12.59313 10.806846,12.779327 10.187063,13.151718 C 9.5672641,13.524118 9.2573686,13.983753 9.257375,14.530624 C 9.2573686,15.05146 9.5412224,15.481147 10.108938,15.819687 C 10.676638,16.15823 11.400596,16.327501 12.280813,16.327499 C 14.317259,16.327501 15.335487,15.692085 15.3355,14.421249 C 15.335487,13.874378 15.073769,13.432972 14.550344,13.097031 C 14.026895,12.761098 13.335489,12.59313 12.476125,12.593124 L 12.476125,12.593124 z "
     style="fill:#ffffff;fill-opacity:1;stroke:none;stroke-width:1px;stroke-linecap:butt;stroke-linejoin:miter;stroke-opacity:1;"
     id="text4137" />
</svg>
