<?xml version="1.0" encoding="UTF-8" standalone="no"?>
<svg
   xmlns:svg="http://www.w3.org/2000/svg"
   xmlns="http://www.w3.org/2000/svg"
   version="1.0"
   width="24.546"
   height="24.780001"
   id="svg2">
  <defs
     id="defs4" />
  <path
     d="M 0,1.103 C 0,0.49 0.492,0 1.095,0 L 23.456,0 C 24.06,0 24.546,0.49 24.546,1.103 L 24.546,23.679 C 24.546,24.283 24.06,24.78 23.456,24.78 L 1.095,24.78 C 0.492,24.779 0,24.283 0,23.679 L 0,1.103 z "
     id="path2161" />
  <path
     d="M 10.476124,13.05794 L 10.476124,11.472002 C 10.674034,11.482425 10.786013,11.487633 10.812062,11.487627 C 12.515178,11.487633 13.571166,11.417321 13.980031,11.27669 C 14.388874,11.136071 14.593301,10.774092 14.593312,10.190752 C 14.593301,9.0918023 13.608927,8.5423237 11.640187,8.5423145 C 9.6922638,8.5423237 8.7183064,9.0813857 8.7183118,10.159502 C 8.7183064,10.409509 8.7964313,10.688155 8.9526868,10.99544 C 8.5099733,11.057946 8.1349736,11.089196 7.8276868,11.08919 C 6.80685,11.089196 5.982632,10.932946 5.3550305,10.62044 C 4.727425,10.307947 4.4136232,9.896489 4.4136243,9.3860645 C 4.4136232,8.610032 5.1206537,7.9681055 6.534718,7.4602833 C 7.9487759,6.9524815 9.7417429,6.6985756 11.913624,6.6985645 C 14.345905,6.6985756 16.323768,6.9993565 17.847218,7.6009083 C 19.370639,8.2024803 20.132357,8.9850316 20.132374,9.9485645 C 20.132357,11.068363 18.809442,11.867841 16.163624,12.347002 C 19.215692,12.695965 20.741732,13.557944 20.741749,14.93294 C 20.741732,15.823566 19.924024,16.570962 18.288624,17.175127 C 16.653194,17.779294 14.629759,18.081377 12.218312,18.081377 C 9.7964303,18.081377 7.7886198,17.801429 6.1948743,17.241533 C 4.601123,16.681638 3.8042488,15.977212 3.8042493,15.128252 C 3.8042488,14.597005 4.1453943,14.154297 4.8276868,13.800127 C 5.5099763,13.445965 6.3641421,13.268881 7.3901868,13.268877 L 8.6089368,13.284502 L 8.9526868,13.292315 C 8.6193482,13.641277 8.4526817,14.018881 8.4526868,14.425127 C 8.4526817,15.544921 9.4943473,16.104816 11.577687,16.104815 C 13.749551,16.104816 14.835488,15.578775 14.835499,14.52669 C 14.835488,13.964193 14.577676,13.577475 14.062062,13.366533 C 13.546427,13.1556 12.593303,13.050132 11.202687,13.050127 L 10.476124,13.05794 z "
     style="fill:#ffffff;fill-opacity:1;stroke:none;stroke-width:1px;stroke-linecap:butt;stroke-linejoin:miter;stroke-opacity:1;"
     id="text3213" />
</svg>
