<?xml version="1.0" encoding="UTF-8" standalone="no"?>
<!-- Created with Inkscape (http://www.inkscape.org/) -->
<svg
   xmlns:svg="http://www.w3.org/2000/svg"
   xmlns="http://www.w3.org/2000/svg"
   version="1.0"
   width="24.546"
   height="24.780001"
   id="svg2">
  <defs
     id="defs4" />
  <path
     d="M 0,1.103 C 0,0.49 0.492,0 1.095,0 L 23.456,0 C 24.06,0 24.546,0.49 24.546,1.103 L 24.546,23.679 C 24.546,24.283 24.06,24.78 23.456,24.78 L 1.095,24.78 C 0.492,24.779 0,24.283 0,23.679 L 0,1.103 z "
     id="path2161" />
  <path
     d="M 12.503469,6.7024994 C 14.878456,6.7025104 16.986527,7.2858432 18.827688,8.4524994 C 20.668815,9.6191742 21.589387,10.95511 21.589406,12.460312 C 21.589387,13.929066 20.637565,15.23245 18.733938,16.370468 C 16.830277,17.508489 14.654498,18.077499 12.206594,18.077499 C 9.7378364,18.077499 7.5789844,17.530625 5.7300313,16.436874 C 3.8810714,15.343127 2.9565932,14.067086 2.9565938,12.608749 C 2.9565932,11.067089 3.9240401,9.6972991 5.8589375,8.4993744 C 7.7938279,7.3014681 10.008669,6.7025104 12.503469,6.7024994 L 12.503469,6.7024994 z M 12.394094,8.6790619 C 10.243044,8.6790709 9.1675245,9.9785488 9.1675313,12.577499 C 9.1675245,14.926461 10.217003,16.100939 12.315969,16.100937 C 14.36804,16.100939 15.394081,14.905627 15.394094,12.514999 C 15.394081,9.9577155 14.394082,8.6790709 12.394094,8.6790619 L 12.394094,8.6790619 z "
     style="fill:#ffffff;fill-opacity:1;stroke:none;stroke-width:1px;stroke-linecap:butt;stroke-linejoin:miter;stroke-opacity:1;"
     id="text2171" />
</svg>
